<svg xmlns="http://www.w3.org/2000/svg" viewBox="0 0 39.9629 19.1603" fill="none" aria-hidden="true">
  <path d="M0 16.7044C0.0834995 15.9939 0.0417497 15.2833 0.208749 14.6146C0.459247 13.6533 0.793245 12.692 1.29424 11.8143C4.34197 6.38083 8.76744 2.36843 14.7377 0.696598C20.8331 -0.975235 26.5946 0.362227 31.3958 4.70899C33.8173 6.88238 35.6543 9.51551 37.0738 12.4412C37.3243 12.9846 37.5748 13.4861 38.034 14.3638C38.5767 13.1518 38.9942 12.2322 39.4117 11.2709C39.537 11.3127 39.6622 11.3127 39.8292 11.3545C39.871 11.6471 39.9962 11.9397 39.9545 12.2322C39.8292 13.6951 39.6622 15.158 39.4952 16.6208C39.37 17.5821 39.2865 18.5852 38.2427 19.0032C37.1573 19.4629 36.2388 18.836 35.529 18.1255C34.5688 17.1224 33.692 15.9939 32.857 14.8654C32.69 14.6146 32.857 14.1549 32.857 13.7787C33.2328 13.7787 33.692 13.6533 33.9425 13.8205C34.694 14.3638 35.3203 15.0326 36.03 15.7013C36.0718 15.5759 36.1553 15.4923 36.1135 15.4505C32.857 6.25544 26.1771 0.78019 16.6581 1.74149C16.1989 1.78329 15.7396 1.86688 15.2804 2.03406C8.89269 4.08206 4.17497 8.05266 1.29424 14.1549C0.918494 14.949 0.751495 15.8685 0.500996 16.7462C0.333997 16.7462 0.166999 16.7044 0 16.7044Z" fill="#ffffff"/>
</svg>
