<svg width="126" height="20" viewBox="0 0 126 20" fill="none" xmlns="http://www.w3.org/2000/svg">
<path fill-rule="evenodd" clip-rule="evenodd" d="M36.1702 0.379203C35.5036 0.374161 34.8382 0.369127 34.1748 0.381444C34.5736 0.848968 35.0671 1.45354 35.1565 2.07789C35.418 3.90369 35.4098 6.02224 35.4023 7.94647C35.401 8.27591 35.3998 8.59971 35.3999 8.91531C35.4001 9.38319 35.4017 9.85012 35.4032 10.3163C35.4106 12.502 35.4178 14.6718 35.2849 16.8491C35.2113 18.0537 34.9982 18.7592 34.1338 19.6028L39.375 19.6008C38.2326 18.519 38.1988 17.3069 38.1568 15.8009L38.154 15.7016C38.1232 14.6116 38.1302 13.4746 38.1371 12.3568V12.3566C38.1397 11.948 38.1422 11.5419 38.1428 11.1417L39.9707 11.1446C41.2047 13.3249 42.8311 16.002 44.1804 18.1285C44.1986 18.1551 44.2167 18.1817 44.235 18.2085C44.6915 18.8784 45.183 19.5996 46.0637 19.6192C46.7557 19.6345 47.4765 19.6223 48.1914 19.6101C48.6427 19.6024 49.0916 19.5948 49.5294 19.5942C47.7002 18.4718 46.669 16.8763 45.5627 15.1647C45.3578 14.8476 45.1503 14.5266 44.9346 14.2039C44.1428 13.0186 43.3389 11.7724 42.5947 10.5582C45.7091 9.52012 47.5351 6.99766 46.5022 3.63828C45.4817 0.319519 41.1576 0.263692 38.3726 0.372794C37.6379 0.390306 36.9034 0.384749 36.1702 0.379203ZM38.6103 1.92683C38.4528 1.93006 38.2998 1.93319 38.1528 1.93481L38.1483 9.47534C38.3148 9.4775 38.477 9.48072 38.6356 9.48387C40.2089 9.51515 41.4178 9.53919 42.7911 8.43883C44.14 6.91859 44.3039 4.21491 42.7248 2.77643C41.7223 1.86317 39.9933 1.89854 38.6103 1.92683Z" fill="#0057C3"/>
<path d="M11.3932 0.373954L16.6298 0.372486C15.6493 1.36969 15.4638 2.32582 15.4546 3.70878C15.4236 8.40293 15.1403 13.2421 15.6227 17.9064C15.6829 18.4882 16.0987 19.0588 16.4755 19.4743L16.4571 19.5773L16.2352 19.5984L11.4012 19.5973C12.7986 18.1682 12.5812 16.3241 12.624 14.4606C12.6535 13.1817 12.625 11.8799 12.6239 10.5986L4.03956 10.6098C4.03654 12.2764 4.01066 13.9931 4.04057 15.6548C4.06924 17.2485 4.06397 18.4557 5.24271 19.6L0 19.6016C1.01363 18.623 1.12776 17.5906 1.19107 16.2268C1.29683 13.9512 1.27382 11.6656 1.2632 9.36956C1.2522 6.99735 1.37749 4.3105 0.976747 1.98245C0.871448 1.37085 0.430959 0.835996 0.0345572 0.384609C1.62365 0.329093 3.63014 0.376811 5.2455 0.375035C4.26077 1.40722 4.11015 2.26297 4.06529 3.65257C4.00872 5.40545 4.03592 7.17509 4.03739 8.92836L12.6258 8.91662C12.6062 7.29191 12.659 5.66543 12.6001 4.0401C12.5444 2.49962 12.4989 1.53894 11.3932 0.373954Z" fill="#0057C3"/>
<path d="M67.3095 0.379292L72.4691 0.371957C71.2526 1.6106 71.2572 3.17501 71.2626 4.83262C71.2727 7.9385 71.1519 11.0217 71.3184 14.1272C71.4967 17.4547 74.3255 18.7054 77.273 17.9511C80.7442 17.0285 80.1507 12.4851 80.1414 9.75262L80.1538 4.42177C80.1491 2.77976 80.0755 1.56837 78.8691 0.373425L83.1028 0.376745C83.2361 0.367479 83.281 0.385778 83.4073 0.417203C83.3469 0.684669 82.9811 0.876312 82.8595 1.12262C82.1048 2.64842 82.228 4.58531 82.2156 6.23419C82.2296 7.89959 82.2009 9.568 82.2195 11.2332C82.2482 13.8854 82.2466 16.7737 79.9934 18.6236C78.3415 19.9802 76.3486 20.0633 74.3209 19.9252C71.1581 19.7096 68.942 17.8324 68.5786 14.6312C68.4361 13.5257 68.4888 12.2749 68.4919 11.141L68.4981 5.48707C68.4818 3.49243 68.605 1.95196 67.3095 0.379292Z" fill="#0057C3"/>
<path d="M19.4588 0.372798L30.925 0.376505C30.904 1.49045 30.9401 2.60479 31.0331 3.71511C30.9585 3.6355 30.8819 3.55783 30.8034 3.48208C28.967 1.68109 25.9534 2.1331 23.4151 2.14707L23.418 9.03477C25.9377 9.03801 28.1716 9.45619 30.2483 7.82793C30.1849 9.18803 30.1264 10.7439 30.3042 12.0909C28.285 10.4151 25.9694 10.7978 23.4126 10.8277L23.4164 12.6533L23.4205 17.8651C25.0163 17.877 27.0168 17.9603 28.5913 17.7647C30.1543 17.5705 30.837 16.6777 31.6715 15.5084C31.5427 16.8557 31.3703 18.2404 31.2352 19.5989L19.4434 19.6057C20.1425 18.8402 20.4131 18.3011 20.4963 17.2672C20.6994 14.7419 20.6546 12.1607 20.646 9.61078C20.6378 7.1585 20.757 4.34548 20.3671 1.93497C20.2802 1.39788 19.7952 0.792064 19.4588 0.372798Z" fill="#0057C3"/>
<path d="M99.9072 0.378803L111.353 0.376951C111.334 1.48928 111.361 2.60199 111.434 3.71208C111.351 3.62043 111.265 3.53133 111.177 3.44508C109.428 1.71042 106.275 2.13702 103.849 2.14844L103.85 9.03853C106.477 9.04062 108.659 9.44529 110.711 7.80614C110.609 9.24778 110.628 10.6954 110.767 12.1338C108.748 10.4126 106.434 10.7972 103.85 10.8113L103.852 17.869C105.512 17.8802 107.58 17.9697 109.191 17.7294C110.618 17.5167 111.348 16.6092 112.098 15.5059C111.932 16.867 111.79 18.2309 111.671 19.597L99.8855 19.5985C100.615 18.8308 100.897 18.0781 100.954 17.0263C101.169 12.8514 101.077 8.64135 101.04 4.46066C101.026 2.82128 100.994 1.66463 99.9072 0.378803Z" fill="#0057C3"/>
<path d="M120.253 0.0170775C122.018 -0.0773538 123.629 0.256669 125.243 0.950349C125.222 2.21046 125.283 3.55397 125.321 4.82095C124.078 2.93171 122.921 1.76301 120.474 1.81397C118.61 1.85281 117.184 2.94615 117.294 4.90411C117.404 6.87612 119.619 7.84862 121.117 8.6775C123.379 9.87206 125.855 11.2709 125.993 14.15C126.061 15.5639 125.662 17.063 124.686 18.1389C123.354 19.6099 121.655 19.8646 119.796 19.9676C117.615 19.9416 116.654 19.7348 114.612 19.0568C114.636 17.6781 114.594 16.4267 114.529 15.0506C115.96 17.243 117.316 18.2815 120.088 18.1749C121.965 18.1026 123.443 16.9117 123.275 14.9371C122.996 11.631 118.479 11.0333 116.435 9.03971C115.398 8.13709 114.781 7.07819 114.693 5.66844C114.469 2.05912 116.92 0.244083 120.253 0.0170775Z" fill="#0057C3"/>
<path d="M58.9124 0.0156917C61.0691 -0.0702462 62.7101 0.189498 64.7293 0.975911C64.7061 2.28691 64.7293 3.59845 64.7983 4.9079C63.8654 3.4749 63.0131 2.40744 61.2209 1.96238C59.6171 1.55107 57.6111 1.72241 56.1905 2.58534C51.151 5.64644 51.7029 16.5681 57.9192 18.0401C59.7401 18.4713 61.5331 18.2409 63.1138 17.2909C63.9901 16.691 64.5697 15.7354 65.1485 14.867C65.0726 16.163 64.8928 17.6184 64.7874 18.9443C61.2496 20.5262 56.1712 20.4644 53.1304 17.8386C49.0109 14.2814 48.7912 7.18514 52.2437 3.11332C53.9711 1.07606 56.3122 0.203782 58.9124 0.0156917Z" fill="#0057C3"/>
<path d="M85.8689 0.378758L91.03 0.374201L90.9634 0.443153C90.1537 1.28632 90.0088 1.84488 89.9228 2.99527C89.7849 4.84413 89.8205 6.69639 89.8205 8.54926C89.8012 11.6532 89.8174 14.7573 89.8693 17.8609C91.4236 17.8771 93.2933 17.9623 94.8066 17.7603C96.4081 17.5465 97.1318 16.7181 98.0066 15.5048C97.9477 16.052 97.8795 16.5982 97.8028 17.1433C97.6874 17.9482 97.6285 18.7863 97.5595 19.5983L85.8588 19.6055C86.5329 18.8976 86.8731 18.2161 86.9343 17.2324C87.1815 13.092 87.0645 8.91131 87.0467 4.76306C87.0389 2.93635 87.0482 1.82534 85.8689 0.378758Z" fill="#0057C3"/>
</svg>
