<svg width="113" height="18" viewBox="0 0 113 18" fill="none" xmlns="http://www.w3.org/2000/svg">
<g id="Group 1">
<g id="Vector">
<path fill-rule="evenodd" clip-rule="evenodd" d="M32.4384 0.341283C31.8406 0.336744 31.2438 0.332214 30.6488 0.3433C31.0065 0.764071 31.4491 1.30819 31.5293 1.8701C31.7638 3.51332 31.7564 5.42002 31.7497 7.15182C31.7486 7.44831 31.7474 7.73974 31.7475 8.02378C31.7477 8.44487 31.7491 8.8651 31.7505 9.28468C31.7571 11.2518 31.7636 13.2046 31.6444 15.1642C31.5784 16.2483 31.3872 16.8833 30.612 17.6425L35.3125 17.6407C34.288 16.6671 34.2576 15.5762 34.2199 14.2208L34.2174 14.1315C34.1898 13.1504 34.1961 12.1271 34.2023 11.1211V11.121C34.2046 10.7532 34.2069 10.3877 34.2074 10.0275L35.8467 10.0301C36.9534 11.9924 38.412 14.4018 39.6221 16.3157C39.6384 16.3395 39.6547 16.3636 39.6711 16.3876C40.0805 16.9906 40.5213 17.6397 41.3111 17.6573C41.9317 17.6711 42.5781 17.66 43.2193 17.6491C43.624 17.6422 44.0266 17.6353 44.4193 17.6347C42.7788 16.6246 41.854 15.1887 40.8618 13.6482C40.678 13.3629 40.4919 13.0739 40.2985 12.7835C39.5883 11.7168 38.8674 10.5952 38.2 9.50235C40.9931 8.56811 42.6307 6.29789 41.7043 3.27445C40.7892 0.287567 36.9112 0.237323 34.4135 0.335515C33.7546 0.351275 33.0959 0.346274 32.4384 0.341283ZM34.6267 1.73415C34.4854 1.73705 34.3482 1.73987 34.2164 1.74133L34.2124 8.5278C34.3617 8.52974 34.5072 8.53265 34.6494 8.53548C36.0604 8.56364 37.1446 8.58527 38.3761 7.59495C39.5858 6.22673 39.7329 3.79342 38.3167 2.49879C37.4176 1.67685 35.867 1.70869 34.6267 1.73415Z" fill="var(--fill-0, black)"/>
<path d="M10.2177 0.336558L14.914 0.335237C14.0347 1.23272 13.8683 2.09324 13.8601 3.3379C13.8323 7.56264 13.5782 11.9179 14.0108 16.1157C14.0648 16.6393 14.4378 17.153 14.7756 17.5269L14.7591 17.6196L14.5601 17.6386L10.2249 17.6376C11.4781 16.3514 11.2831 14.6917 11.3216 13.0145C11.348 11.8635 11.3224 10.6919 11.3214 9.53877L3.62278 9.54884C3.62007 11.0487 3.59686 12.5938 3.62368 14.0893C3.6494 15.5237 3.64467 16.6101 4.7018 17.64L0 17.6414C0.909048 16.7607 1.01141 15.8315 1.06818 14.6041C1.16303 12.5561 1.14239 10.499 1.13287 8.4326C1.123 6.29761 1.23537 3.87945 0.875972 1.78421C0.781537 1.23376 0.386495 0.752396 0.0309918 0.346148C1.45613 0.296184 3.2556 0.33913 4.7043 0.337532C3.82117 1.26649 3.68609 2.03667 3.64585 3.28731C3.59512 4.86491 3.61952 6.45758 3.62084 8.03553L11.3231 8.02496C11.3056 6.56272 11.3529 5.09888 11.3001 3.63609C11.2501 2.24966 11.2093 1.38505 10.2177 0.336558Z" fill="var(--fill-0, black)"/>
<path d="M60.3648 0.341363L64.9921 0.334761C63.9011 1.44954 63.9053 2.85751 63.9101 4.34936C63.9192 7.14465 63.8108 9.91952 63.9602 12.7145C64.12 15.7092 66.657 16.8348 69.3004 16.156C72.4135 15.3257 71.8812 11.2366 71.8728 8.77736L71.8839 3.97959C71.8798 2.50179 71.8138 1.41153 70.7318 0.336082L74.5287 0.33907C74.6482 0.330731 74.6885 0.3472 74.8018 0.375483C74.7476 0.616202 74.4196 0.788681 74.3105 1.01036C73.6337 2.38358 73.7442 4.12678 73.733 5.61077C73.7456 7.10963 73.7198 8.6112 73.7365 10.1099C73.7622 12.4969 73.7608 15.0964 71.7401 16.7612C70.2586 17.9822 68.4714 18.057 66.6529 17.9327C63.8163 17.7386 61.829 16.0492 61.5031 13.1681C61.3752 12.1731 61.4225 11.0474 61.4252 10.0269L61.4308 4.93837C61.4162 3.14319 61.5267 1.75677 60.3648 0.341363Z" fill="var(--fill-0, black)"/>
<path d="M17.4511 0.335519L27.7343 0.338854C27.7155 1.34141 27.7479 2.34431 27.8313 3.3436C27.7644 3.27195 27.6957 3.20205 27.6253 3.13387C25.9783 1.51298 23.2756 1.91979 20.9993 1.93236L21.0018 8.13129C23.2616 8.13421 25.265 8.51057 27.1275 7.04514C27.0706 8.26923 27.0182 9.66948 27.1776 10.8818C25.3667 9.37359 23.29 9.71799 20.997 9.74495L21.0005 11.388L21.0041 16.0786C22.4353 16.0893 24.2293 16.1642 25.6414 15.9882C27.0431 15.8134 27.6554 15.0099 28.4038 13.9575C28.2883 15.1702 28.1337 16.4163 28.0125 17.6391L17.4373 17.6452C18.0643 16.9562 18.307 16.471 18.3816 15.5405C18.5637 13.2677 18.5236 10.9447 18.5159 8.6497C18.5085 6.44265 18.6154 3.91093 18.2657 1.74147C18.1878 1.25809 17.7528 0.712858 17.4511 0.335519Z" fill="var(--fill-0, black)"/>
<path d="M89.5993 0.340922L99.8642 0.339256C99.8468 1.34035 99.8711 2.34179 99.9371 3.34087C99.8628 3.25839 99.7857 3.17819 99.7064 3.10057C98.1381 1.53937 95.3099 1.92331 93.1342 1.9336L93.1356 8.13468C95.4913 8.13655 97.4481 8.50076 99.2881 7.02552C99.1971 8.323 99.2138 9.62583 99.3389 10.9205C97.528 9.37135 95.4531 9.71749 93.1349 9.73013L93.137 16.0821C94.6254 16.0922 96.4808 16.1727 97.9255 15.9564C99.2047 15.7651 99.8593 14.9483 100.533 13.9553C100.383 15.1803 100.256 16.4078 100.15 17.6373L89.5799 17.6387C90.2345 16.9477 90.4874 16.2703 90.5381 15.3236C90.7306 11.5662 90.6486 7.77721 90.6153 4.01459C90.6028 2.53915 90.5743 1.49816 89.5993 0.340922Z" fill="var(--fill-0, black)"/>
<path d="M107.846 0.0153698C109.429 -0.0696184 110.874 0.231002 112.321 0.855314C112.303 1.98942 112.357 3.19857 112.391 4.33886C111.276 2.63854 110.239 1.58671 108.044 1.63258C106.372 1.66753 105.093 2.65153 105.192 4.4137C105.291 6.18851 107.277 7.06376 108.62 7.80975C110.649 8.88485 112.87 10.1438 112.993 12.735C113.054 14.0075 112.697 15.3567 111.822 16.325C110.627 17.6489 109.103 17.8782 107.436 17.9709C105.48 17.9475 104.619 17.7613 102.787 17.1511C102.808 15.9103 102.771 14.784 102.713 13.5455C103.996 15.5187 105.212 16.4534 107.698 16.3574C109.381 16.2924 110.706 15.2205 110.556 13.4434C110.306 10.4679 106.255 9.92994 104.422 8.13574C103.492 7.32338 102.938 6.37037 102.86 5.10159C102.659 1.85321 104.857 0.219675 107.846 0.0153698Z" fill="var(--fill-0, black)"/>
<path d="M52.8342 0.0141225C54.7683 -0.0632216 56.24 0.170548 58.0509 0.87832C58.03 2.05822 58.0509 3.2386 58.1127 4.41711C57.2761 3.12741 56.5117 2.16669 54.9044 1.76614C53.4661 1.39596 51.6671 1.55017 50.393 2.3268C45.8735 5.08179 46.3685 14.9113 51.9434 16.2361C53.5765 16.6242 55.1845 16.4168 56.6021 15.5618C57.388 15.0219 57.9077 14.1618 58.4268 13.3803C58.3587 14.5467 58.1975 15.8566 58.103 17.0498C54.9302 18.4736 50.3757 18.4179 47.6487 16.0547C43.9542 12.8532 43.7572 6.46662 46.8535 2.80198C48.4027 0.968451 50.5022 0.183404 52.8342 0.0141225Z" fill="var(--fill-0, black)"/>
<path d="M77.0094 0.340883L81.6381 0.336781L81.5783 0.398837C80.8521 1.15768 80.7222 1.66039 80.6451 2.69574C80.5214 4.35972 80.5533 6.02675 80.5533 7.69434C80.536 10.4879 80.5505 13.2815 80.5971 16.0748C81.991 16.0894 83.6678 16.166 85.0249 15.9843C86.4612 15.7918 87.1103 15.0463 87.8948 13.9543C87.842 14.4468 87.7808 14.9384 87.712 15.429C87.6085 16.1533 87.5557 16.9077 87.4938 17.6385L77.0004 17.645C77.6049 17.0079 77.91 16.3945 77.9649 15.5091C78.1866 11.7828 78.0816 8.02018 78.0656 4.28675C78.0587 2.64272 78.067 1.64281 77.0094 0.340883Z" fill="var(--fill-0, black)"/>
</g>
</g>
</svg>
