<svg xmlns="http://www.w3.org/2000/svg" viewBox="0 0 71 16" fill="none" role="img" aria-label="Kano">
  <g clip-path="url(#kano-wm-clip)" fill="#ffffff">
    <path d="M4.09371 0.122035C4.57841 0.0876643 6.05193 0.0312828 6.23338 0.372165C6.29486 0.487672 6.34654 0.85011 6.34654 1.32075L6.35024 5.40927C8.57599 5.47491 9.12393 3.45726 9.59953 1.70601L9.61154 1.6618C9.86118 0.742913 9.81064 0.375079 10.8429 0.378947C12.5295 0.385207 14.2161 0.371052 15.9018 0.375956C16.1703 0.376714 16.3696 0.625685 16.3285 0.889569C15.9595 2.87773 15.2728 4.87336 13.9313 6.43203C13.4992 6.93644 13.0623 7.24824 12.5692 7.67529C12.9433 8.05725 13.4347 8.33082 13.7917 8.79616C14.8981 10.2387 15.6366 11.8724 16.3279 13.5395C16.5289 14.0539 16.823 14.5754 16.9036 15.1249C16.9898 15.711 16.3351 15.6321 15.9586 15.6296C14.1977 15.6325 12.3409 15.6627 10.588 15.6253C10.4637 15.5456 10.2704 15.4044 10.2057 15.2696C9.47522 13.7576 9.1267 12.0582 8.14699 10.6566C7.6548 9.95286 7.18307 9.81686 6.35527 9.87192C6.26996 11.5326 6.4044 13.2452 6.34017 14.9079C6.32319 15.3474 6.204 15.6185 5.759 15.6293C5.06813 15.646 4.3335 15.6273 3.64608 15.6304L1.71559 15.64C1.23559 15.6424 0.482452 15.7249 0.102852 15.4147C-0.0579646 14.6511 0.017787 13.3481 0.018068 12.5199L0.0197537 7.78973L0.0189538 1.32075C0.0189538 1.13953 0.0280234 0.752441 0.154035 0.617468C0.546723 0.196838 3.4439 0.157762 4.09371 0.122035Z"/>
    <path fill-rule="evenodd" clip-rule="evenodd" d="M70.9773 7.85976C70.8979 2.77694 67.2861 0.00506989 62.3769 0.0234518C59.4729 0.101963 56.7913 0.975482 55.1137 3.50476C54.1799 4.91231 53.8311 6.57146 53.8688 8.23976C53.9848 13.3158 57.7098 15.9278 62.5034 15.953C67.502 15.8852 71.0592 13.0908 70.9773 7.85976ZM64.9205 7.37133C64.7514 5.91235 63.7326 5.09613 62.2661 5.16431C61.8261 5.20618 61.5496 5.26439 61.1574 5.48529C59.1445 6.61891 59.5143 10.5884 62.0594 10.7977C62.2531 10.8138 62.4524 10.8122 62.6486 10.8107L62.6724 10.8104C64.643 10.5888 65.1288 9.16847 64.9205 7.37133Z"/>
    <path fill-rule="evenodd" clip-rule="evenodd" d="M28.7285 0.474317C27.1773 0.013973 24.8013 -0.0819231 23.2052 0.0613434C21.6163 0.173429 19.432 0.480936 18.0914 1.35413C17.8639 1.50231 17.9225 3.29184 17.9392 3.62479C17.9455 3.75087 17.9371 3.95005 17.9274 4.18016C17.9005 4.81536 17.8635 5.68638 18.1002 5.90678C18.3528 5.93784 18.9082 5.7194 19.4081 5.5228L19.4082 5.52278C19.6848 5.41397 19.9445 5.31185 20.1265 5.26242C20.9942 5.02666 22.1895 4.80699 23.3652 4.79219C24.4709 4.77827 25.7345 4.8158 26.5243 5.0854C27.7879 5.51678 27.3536 7.40431 25.9209 7.09821C24.1601 6.45824 22.0522 6.52043 20.3016 7.09303C17.8204 7.90486 16.5742 10.6031 17.5185 13.0442C17.7983 13.7643 18.2628 14.3987 18.8659 14.8852C20.2896 15.9111 22.3077 16.122 24.0083 15.8621C24.7666 15.7453 25.4923 15.4737 26.1398 15.0646C26.3066 14.9569 26.4997 14.7556 26.6885 14.5587C26.9475 14.2889 27.1984 14.0272 27.363 14.0263C27.579 14.1941 27.5516 14.5457 27.5245 14.8905C27.5009 15.1927 27.4776 15.4896 27.6192 15.6528C27.7859 15.7245 27.9828 15.7332 28.1643 15.7413C28.1765 15.7418 28.1886 15.7423 28.2006 15.7429C28.7979 15.77 33.3482 15.7927 33.6114 15.685C33.7215 15.64 33.8015 15.5922 33.8405 15.4761C33.9559 15.134 33.9483 6.84102 33.8358 5.96977C33.7334 5.17389 33.5036 4.37642 33.1213 3.66786C32.1693 1.90376 30.5972 1.02884 28.7285 0.474317ZM25.212 9.36212C23.949 9.47129 23.2425 10.1295 23.3015 11.0769C23.3378 11.3611 23.3881 11.5398 23.5794 11.7932C24.5607 13.0935 27.9968 12.8547 28.178 11.2104C28.1864 11.1478 28.2035 10.9103 28.1891 10.8144C27.9971 9.54133 26.7676 9.22753 25.212 9.36212Z"/>
    <path d="M46.1275 0.139111C47.4603 -0.0166357 48.9773 0.227711 50.1146 0.940659C52.6356 2.52125 52.5565 5.35964 52.5526 7.92714L52.5469 11.5915L52.5501 13.85C52.5505 14.338 52.6208 15.2296 52.3699 15.6208C52.1315 15.7755 47.2126 15.7209 46.5927 15.7005C46.4944 15.6204 46.3113 15.4569 46.2909 15.3361C46.2154 14.8899 46.2628 14.2934 46.2628 13.8321L46.2644 9.61137C46.2644 7.8366 46.5916 4.90149 43.6426 5.37998C42.295 5.59888 41.9252 6.77676 41.8815 8.00329L41.8847 12.6211C41.8863 13.4078 41.8967 14.1981 41.8759 14.9836C41.8429 15.2184 41.8244 15.6627 41.507 15.683C40.309 15.7595 39.0537 15.687 37.8507 15.7157C37.458 15.7249 35.9595 15.7671 35.729 15.6172C35.4556 15.2471 35.5475 14.0889 35.5471 13.5733L35.5496 10.3666L35.5427 1.2561C35.546 0.86502 35.5492 0.494986 36.0441 0.47784C37.3079 0.434178 38.578 0.467593 39.8434 0.453318C40.0521 0.450965 41.2335 0.432026 41.3263 0.545188C41.747 1.05661 41.2159 2.77784 41.629 3.22363C42.0669 3.38668 42.1906 2.88503 42.3475 2.57166C42.4937 2.27575 42.6723 1.99696 42.8807 1.74037C43.7048 0.73431 44.8565 0.262162 46.1275 0.139111Z"/>
  </g>
  <defs>
    <clipPath id="kano-wm-clip"><rect width="71" height="16" fill="#ffffff"/></clipPath>
  </defs>
</svg>
