<svg preserveAspectRatio="none" width="100%" height="100%" overflow="visible" style="display: block;" viewBox="0 0 88 20" fill="none" xmlns="http://www.w3.org/2000/svg">
<g id="kano-logo" clip-path="url(#clip0_71_614)">
<path id="Vector" d="M5.0739 0.152544C5.67465 0.10958 7.50099 0.0391035 7.72588 0.465206C7.80209 0.60959 7.86613 1.06264 7.86613 1.65094L7.87072 6.76159C10.6294 6.84364 11.3085 4.32158 11.898 2.13251L11.9129 2.07725C12.2223 0.928641 12.1597 0.468849 13.4391 0.473684C15.5295 0.481509 17.62 0.463815 19.7093 0.469945C20.0421 0.470892 20.289 0.782107 20.2381 1.11196C19.7808 3.59716 18.9297 6.09171 17.267 8.04004C16.7314 8.67055 16.1898 9.06029 15.5787 9.59411C16.0424 10.0716 16.6515 10.4135 17.0939 10.9952C18.4652 12.7984 19.3806 14.8405 20.2375 16.9243C20.4865 17.5674 20.851 18.2192 20.9509 18.9061C21.0577 19.6387 20.2464 19.5401 19.7796 19.5371C17.5972 19.5406 15.2957 19.5784 13.1232 19.5316C12.9691 19.432 12.7296 19.2555 12.6493 19.0871C11.7439 17.197 11.312 15.0727 10.0977 13.3208C9.48764 12.4411 8.90296 12.2711 7.87695 12.3399C7.77121 14.4158 7.93784 16.5565 7.85823 18.6349C7.83719 19.1842 7.68947 19.5231 7.13792 19.5366C6.28162 19.5575 5.37109 19.5341 4.51908 19.538L2.12637 19.55C1.53143 19.553 0.597969 19.6562 0.127479 19.2684C-0.0718434 18.3139 0.0220458 16.6851 0.0223941 15.6499L0.0244835 9.73716L0.0234921 1.65094C0.0234921 1.42441 0.0347332 0.940551 0.190917 0.771835C0.677628 0.246048 4.2685 0.197203 5.0739 0.152544Z" fill="var(--fill-0, white)"/>
<path id="Vector_2" fill-rule="evenodd" clip-rule="evenodd" d="M87.9719 9.82471C87.8734 3.47118 83.3969 0.00633736 77.3123 0.0293147C73.7129 0.127454 70.3892 1.21935 68.3099 4.38095C67.1526 6.14039 66.7203 8.21432 66.7669 10.2997C66.9107 16.6447 71.5277 19.9098 77.469 19.9413C83.6645 19.8565 88.0734 16.3635 87.9719 9.82471ZM80.4648 9.21417C80.2553 7.39043 78.9925 6.37016 77.1749 6.45539C76.6296 6.50773 76.2868 6.58049 75.8007 6.85662C73.3059 8.27364 73.7642 13.2355 76.9187 13.4972C77.1588 13.5173 77.4057 13.5153 77.649 13.5133L77.6785 13.513C80.1209 13.236 80.723 11.4606 80.4648 9.21417Z" fill="var(--fill-0, white)"/>
<path id="Vector_3" fill-rule="evenodd" clip-rule="evenodd" d="M35.6072 0.592896C33.6845 0.0174662 30.7396 -0.102404 28.7614 0.0766792C26.792 0.216786 24.0848 0.601171 22.4232 1.69267C22.1412 1.87788 22.2138 4.1148 22.2345 4.53099C22.2424 4.68859 22.2319 4.93756 22.2199 5.22521C22.1865 6.01921 22.1407 7.10797 22.434 7.38347C22.7471 7.42229 23.4355 7.14926 24.0551 6.9035L24.0552 6.90347C24.3981 6.76746 24.72 6.63981 24.9455 6.57802C26.021 6.28332 27.5025 6.00874 28.9597 5.99024C30.3301 5.97283 31.8963 6.01975 32.8752 6.35675C34.4414 6.89597 33.903 9.25539 32.1273 8.87276C29.9449 8.07279 27.3323 8.15054 25.1625 8.86628C22.0873 9.88108 20.5427 13.2539 21.7131 16.3053C22.0598 17.2054 22.6356 17.9984 23.3831 18.6065C25.1476 19.8889 27.6489 20.1525 29.7567 19.8276C30.6966 19.6816 31.5961 19.3422 32.3986 18.8308C32.6053 18.6961 32.8447 18.4445 33.0787 18.1984C33.3997 17.8611 33.7108 17.534 33.9147 17.5328C34.1825 17.7426 34.1484 18.1822 34.1149 18.6131C34.0856 18.9909 34.0568 19.362 34.2323 19.566C34.4388 19.6556 34.6829 19.6665 34.9079 19.6766C34.923 19.6773 34.938 19.6778 34.9528 19.6786C35.6932 19.7125 41.333 19.7409 41.6591 19.6063C41.7957 19.55 41.8949 19.4902 41.9432 19.3451C42.0861 18.9175 42.0767 8.55127 41.9373 7.46222C41.8104 6.46736 41.5256 5.47052 41.0518 4.58482C39.8718 2.3797 37.9233 1.28605 35.6072 0.592896ZM31.2487 11.7026C29.6833 11.8391 28.8076 12.6619 28.8807 13.8461C28.9257 14.2014 28.9881 14.4247 29.2252 14.7415C30.4414 16.3669 34.7003 16.0683 34.9248 14.013C34.9353 13.9348 34.9565 13.6378 34.9385 13.518C34.7007 11.9267 33.1768 11.5344 31.2487 11.7026Z" fill="var(--fill-0, white)"/>
<path id="Vector_4" d="M57.1721 0.173889C58.824 -0.0207946 60.7042 0.284639 62.1138 1.17582C65.2385 3.15157 65.1405 6.69955 65.1356 9.90892L65.1285 14.4894L65.1325 17.3125C65.133 17.9225 65.2201 19.0371 64.9092 19.526C64.6136 19.7194 58.517 19.6511 57.7488 19.6257C57.6269 19.5255 57.4 19.3212 57.3746 19.1701C57.281 18.6124 57.3398 17.8668 57.3398 17.2901L57.3417 12.0142C57.3417 9.79575 57.7473 6.12686 54.0922 6.72497C52.422 6.9986 51.9637 8.47095 51.9094 10.0041L51.9134 15.7764C51.9154 16.7597 51.9283 17.7476 51.9025 18.7295C51.8617 19.023 51.8388 19.5783 51.4452 19.6037C49.9605 19.6994 48.4046 19.6087 46.9135 19.6446C46.4268 19.6561 44.5695 19.7089 44.2839 19.5215C43.945 19.0589 44.0589 17.6111 44.0584 16.9666L44.0615 12.9582L44.053 1.57013C44.057 1.08127 44.061 0.618732 44.6744 0.5973C46.2407 0.542723 47.815 0.584491 49.3834 0.566648C49.6421 0.563707 51.1064 0.540032 51.2213 0.681485C51.7427 1.32076 51.0844 3.4723 51.5965 4.02954C52.1393 4.23335 52.2926 3.60628 52.4871 3.21457C52.6682 2.84469 52.8897 2.4962 53.1479 2.17546C54.1693 0.917887 55.5968 0.327703 57.1721 0.173889Z" fill="var(--fill-0, white)"/>
</g>
<defs>
<clipPath id="clip0_71_614">
<rect width="88" height="20" fill="white"/>
</clipPath>
</defs>
</svg>
