<svg preserveAspectRatio="none" width="100%" height="100%" overflow="visible" style="display: block;" viewBox="0 0 142 80" fill="none" xmlns="http://www.w3.org/2000/svg">
<g id="Frame 14">
<g id="amazfit">
<path d="M44.2758 48.7501H41.3727V47.4811C40.9209 47.981 40.3825 48.3559 39.7577 48.6155C39.1329 48.875 38.4503 49 37.7294 49C37.0084 49 36.2009 48.8366 35.4991 48.5097C34.807 48.1829 34.1918 47.7407 33.6823 47.1735C33.1632 46.6063 32.7498 45.9526 32.4518 45.2028C32.1538 44.4529 32 43.6454 32 42.7802C32 41.915 32.1538 41.0979 32.4518 40.3384C32.7498 39.5694 33.1728 38.9061 33.7207 38.3485C34.2591 37.7813 34.9127 37.3391 35.6626 37.0026C36.4124 36.6662 37.2487 36.5027 38.1523 36.5027C39.056 36.5027 39.8731 36.6662 40.6229 37.0026C41.3727 37.3391 42.0168 37.7813 42.5647 38.3485C43.103 38.9157 43.526 39.579 43.8336 40.3384C44.1316 41.1075 44.2854 41.915 44.2854 42.7802V48.7308L44.2758 48.7501ZM41.2189 42.7994C41.2189 42.3188 41.142 41.8766 40.9786 41.4536C40.8151 41.0402 40.594 40.6749 40.3153 40.3673C40.0365 40.0597 39.7096 39.8193 39.3347 39.6367C38.9598 39.4636 38.5657 39.3675 38.1427 39.3675C37.7197 39.3675 37.3256 39.454 36.9507 39.6174C36.5758 39.7905 36.249 40.0308 35.9702 40.3384C35.6914 40.6461 35.4703 41.0114 35.3069 41.4247C35.1435 41.8381 35.0666 42.2995 35.0666 42.7898C35.0666 43.2801 35.1435 43.7127 35.3069 44.1165C35.4703 44.5298 35.6914 44.8759 35.9702 45.1835C36.249 45.4815 36.5758 45.7219 36.9507 45.8853C37.3256 46.0583 37.7197 46.1352 38.1427 46.1352C38.5657 46.1352 38.9598 46.0487 39.3347 45.8661C39.7096 45.693 40.0365 45.4527 40.3153 45.1451C40.594 44.8471 40.8151 44.4914 40.9786 44.078C41.142 43.6742 41.2189 43.232 41.2189 42.7706V42.7994Z" fill="var(--fill-0, black)"/>
<path d="M64.7323 48.7501H61.6658V41.7612C61.6658 41.5882 61.6465 41.3767 61.5985 41.1267C61.5504 40.8672 61.4543 40.6172 61.3005 40.3769C61.1467 40.127 60.9256 39.9251 60.6276 39.752C60.3296 39.579 59.9354 39.4925 59.4163 39.4925C58.8972 39.4925 58.1762 39.704 57.7437 40.1173C57.3111 40.5307 57.09 41.0883 57.09 41.7612V48.7501H54.0234V41.7612C54.0234 41.5882 54.0042 41.3767 53.9561 41.1267C53.9081 40.8672 53.8119 40.6172 53.6677 40.3769C53.5235 40.127 53.3024 39.9251 53.0044 39.752C52.7064 39.579 52.3123 39.4925 51.7932 39.4925C51.2741 39.4925 50.5339 39.704 50.1109 40.1173C49.6879 40.5307 49.4765 41.0883 49.4765 41.7612V48.7501H46.4099V41.8381C46.4099 41.0787 46.5349 40.3769 46.7944 39.7232C47.054 39.0695 47.4097 38.5119 47.8711 38.0313C48.3325 37.5506 48.8997 37.1757 49.563 36.9065C50.2263 36.6373 50.9665 36.5027 51.7932 36.5027C52.6199 36.5027 53.3409 36.6566 53.985 36.9546C54.629 37.2526 55.1674 37.666 55.5999 38.1947C56.0518 37.666 56.5997 37.2526 57.2438 36.9546C57.8975 36.6566 58.6088 36.5027 59.4067 36.5027C60.2046 36.5027 60.9928 36.6373 61.6465 36.8969C62.3002 37.1565 62.8578 37.5314 63.3192 38.0024C63.771 38.4735 64.1267 39.031 64.367 39.6847C64.6073 40.3384 64.7227 41.0498 64.7227 41.8477V48.7597L64.7323 48.7501Z" fill="var(--fill-0, black)"/>
<path d="M78.5751 48.7501H75.6719V47.4811C75.2201 47.981 74.6818 48.3559 74.0569 48.6155C73.4321 48.875 72.7496 49 72.0286 49C71.3076 49 70.5001 48.8366 69.7984 48.5097C69.1062 48.1829 68.491 47.7407 67.9815 47.1735C67.4624 46.6063 67.0491 45.9526 66.751 45.2028C66.453 44.4529 66.2992 43.6454 66.2992 42.7802C66.2992 41.915 66.453 41.0979 66.751 40.3384C67.0491 39.5694 67.472 38.9061 68.02 38.3485C68.5583 37.7813 69.212 37.3391 69.9618 37.0026C70.7116 36.6662 71.5479 36.5027 72.4516 36.5027C73.3552 36.5027 74.1723 36.6662 74.9221 37.0026C75.6719 37.3391 76.316 37.7813 76.8639 38.3485C77.4023 38.9157 77.8252 39.579 78.1329 40.3384C78.4309 41.1075 78.5847 41.915 78.5847 42.7802V48.7308L78.5751 48.7501ZM75.5085 42.7994C75.5085 42.3188 75.4316 41.8766 75.2682 41.4536C75.1048 41.0402 74.8837 40.6749 74.6049 40.3673C74.3261 40.0597 73.9993 39.8193 73.6244 39.6367C73.2494 39.4636 72.8553 39.3675 72.4323 39.3675C72.0094 39.3675 71.6152 39.454 71.2403 39.6174C70.8654 39.7905 70.5386 40.0308 70.2598 40.3384C69.981 40.6461 69.7599 41.0114 69.5965 41.4247C69.4331 41.8381 69.3562 42.2995 69.3562 42.7898C69.3562 43.2801 69.4331 43.7127 69.5965 44.1165C69.7599 44.5298 69.981 44.8759 70.2598 45.1835C70.5386 45.4815 70.8654 45.7219 71.2403 45.8853C71.6152 46.0583 72.0094 46.1352 72.4323 46.1352C72.8553 46.1352 73.2494 46.0487 73.6244 45.8661C73.9993 45.693 74.3261 45.4527 74.6049 45.1451C74.8837 44.8471 75.1048 44.4914 75.2682 44.078C75.4316 43.6742 75.5085 43.232 75.5085 42.7706V42.7994Z" fill="var(--fill-0, black)"/>
<path d="M90.6394 48.7501H80.1997V46.1064L86.5154 39.5598H80.4592V36.8008H90.4375V39.5405L84.2371 45.991H90.6394V48.7501Z" fill="var(--fill-0, black)"/>
<path d="M97.0705 36.82H95.2536V36.0317C95.2729 35.1953 95.4651 34.5993 95.8496 34.2436C96.2245 33.8879 96.8013 33.7341 97.5511 33.7822V31.0424C96.686 30.9463 95.9169 31.0136 95.2536 31.2443C94.5903 31.4654 94.0232 31.8115 93.5714 32.2729C93.1195 32.7343 92.7735 33.3015 92.5428 33.9745C92.312 34.6474 92.1967 35.378 92.1967 36.1663V48.7404H95.2632V39.7616H97.0801V36.8104L97.0705 36.82Z" fill="var(--fill-0, black)"/>
<path d="M109.99 48.8558C109.106 48.9519 108.337 48.8943 107.674 48.6924C107.01 48.4905 106.453 48.1636 106.001 47.7214C105.549 47.2696 105.213 46.7217 104.982 46.0583C104.751 45.4046 104.636 44.6644 104.636 43.8377V33.7534H107.702V36.7911H109.856V39.5021H107.702V43.8569C107.702 44.6933 107.895 45.2797 108.27 45.6161C108.645 45.9526 109.221 46.1064 110 46.0583V48.8462L109.99 48.8558Z" fill="var(--fill-0, black)"/>
<path d="M102.367 36.8008H99.2334V48.7501H102.367V36.8008Z" fill="var(--fill-0, black)"/>
</g>
<g id="coming_soon_label 1" clip-path="url(#clip0_71_626)">
<path id="Vector" d="M84.6862 15.2291L57.2648 14.2716C52.9701 14.1216 49.3792 17.1321 49.2443 20.9957C49.1094 24.8594 52.4815 28.113 56.7762 28.263L84.1976 29.2206C88.4923 29.3706 92.0832 26.3601 92.2181 22.4964C92.353 18.6328 88.9809 15.3791 84.6862 15.2291Z" fill="var(--fill-0, #E498FF)"/>
<path id="Vector_2" d="M54.4738 23.2895C54.17 23.2789 53.9234 23.2017 53.7342 23.058C53.5451 22.9129 53.4168 22.7177 53.3493 22.4723C53.2818 22.227 53.2793 21.9485 53.3418 21.6371C53.4044 21.3217 53.5193 21.0453 53.6865 20.8082C53.8551 20.5697 54.0618 20.3861 54.3067 20.2576C54.5529 20.1291 54.8232 20.0699 55.1176 20.0802C55.355 20.0885 55.5576 20.1397 55.7254 20.2338C55.8933 20.3266 56.0186 20.4531 56.1013 20.6135C56.1839 20.7739 56.2156 20.9589 56.196 21.1686L55.6039 21.148C55.5995 21.0012 55.5496 20.8732 55.4543 20.764C55.359 20.6548 55.215 20.5968 55.0224 20.59C54.8528 20.5841 54.6952 20.6234 54.5497 20.708C54.4042 20.7911 54.2797 20.913 54.1763 21.0737C54.073 21.233 53.9998 21.4232 53.9568 21.6444C53.9108 21.8708 53.906 22.0675 53.9423 22.2344C53.9786 22.4013 54.0514 22.5321 54.1608 22.6269C54.2702 22.7217 54.4104 22.7721 54.5813 22.778C54.698 22.7821 54.8072 22.7649 54.9091 22.7264C55.0123 22.6865 55.104 22.6279 55.1841 22.5507C55.2656 22.4734 55.33 22.3793 55.3773 22.2682L55.9715 22.289C55.9061 22.489 55.8021 22.6659 55.6596 22.8197C55.5184 22.9737 55.3472 23.0926 55.146 23.1765C54.9447 23.2605 54.7207 23.2981 54.4738 23.2895ZM57.6899 23.4018C57.3928 23.3914 57.147 23.315 56.9523 23.1724C56.7577 23.0285 56.624 22.8324 56.5511 22.5841C56.4797 22.3346 56.4761 22.0473 56.5405 21.7224C56.6032 21.4042 56.7167 21.1285 56.8811 20.8953C57.0467 20.6621 57.2499 20.4839 57.4905 20.3606C57.7325 20.2374 57.9986 20.1808 58.2889 20.191C58.586 20.2013 58.8312 20.2785 59.0244 20.4223C59.2191 20.5662 59.3527 20.763 59.4255 21.0126C59.4983 21.2622 59.5025 21.5502 59.4381 21.8765C59.3755 22.192 59.2607 22.4663 59.0936 22.6994C58.928 22.9312 58.7249 23.1087 58.4843 23.232C58.2436 23.3553 57.9788 23.4119 57.6899 23.4018ZM57.7423 22.8925C57.9376 22.8993 58.1097 22.8537 58.2584 22.7558C58.4085 22.6578 58.5327 22.5251 58.6309 22.3574C58.7291 22.1898 58.7987 22.0048 58.8397 21.8027C58.8778 21.6071 58.8834 21.4274 58.8565 21.2636C58.8311 21.0985 58.7678 20.9646 58.6668 20.8619C58.5659 20.7593 58.4224 20.7047 58.2366 20.6982C58.0413 20.6914 57.8678 20.7376 57.7163 20.8369C57.5662 20.9348 57.442 21.0683 57.3438 21.2372C57.2469 21.4063 57.1786 21.5919 57.1389 21.7942C57.1009 21.9884 57.0947 22.168 57.1201 22.3332C57.1456 22.497 57.2089 22.6295 57.31 22.7308C57.411 22.832 57.5551 22.8859 57.7423 22.8925ZM59.7586 23.4109L60.3886 20.305L60.9725 20.3254L60.8693 20.8309L60.908 20.8322C61.009 20.6634 61.1425 20.5336 61.3087 20.4431C61.4762 20.3511 61.6637 20.3088 61.8713 20.3161C62.0775 20.3233 62.2419 20.3779 62.3647 20.4799C62.4888 20.582 62.5675 20.7191 62.6009 20.8914L62.6334 20.8925C62.7397 20.7279 62.8848 20.5992 63.0686 20.5065C63.2525 20.4139 63.457 20.3714 63.6822 20.3793C63.963 20.3891 64.1756 20.4862 64.3199 20.6704C64.4656 20.8533 64.5024 21.1221 64.4302 21.4766L64.0071 23.5593L63.3967 23.538L63.8097 21.5119C63.851 21.3002 63.8238 21.1459 63.7281 21.0488C63.6324 20.9505 63.5045 20.8985 63.3444 20.8929C63.1464 20.886 62.9801 20.9413 62.8456 21.0587C62.7112 21.1749 62.6257 21.3273 62.5893 21.5161L62.184 23.4956L61.5797 23.4745L62.0001 21.41C62.0332 21.2401 62.0068 21.1028 61.9208 20.9979C61.8362 20.8918 61.7092 20.8358 61.5396 20.8299C61.4243 20.8259 61.3113 20.8524 61.2007 20.9097C61.0914 20.9669 60.9969 21.0478 60.9172 21.1523C60.8375 21.2567 60.7836 21.3784 60.7557 21.5173L60.367 23.4322L59.7586 23.4109ZM64.7632 23.5857L65.3932 20.4798L66.0016 20.501L65.3716 23.6069L64.7632 23.5857ZM65.8416 20.0067C65.7358 20.003 65.6475 19.9646 65.5767 19.8915C65.5073 19.8172 65.4771 19.7306 65.486 19.6318C65.4949 19.5316 65.5399 19.4477 65.6211 19.3799C65.7022 19.3108 65.7951 19.2781 65.8995 19.2817C66.0053 19.2854 66.0929 19.3245 66.1623 19.3988C66.2317 19.4718 66.2627 19.5584 66.2551 19.6587C66.2462 19.7575 66.2012 19.8414 66.12 19.9105C66.0402 19.9784 65.9474 20.0104 65.8416 20.0067ZM67.1132 21.8106L66.7432 23.6548L66.1348 23.6336L66.7648 20.5277L67.3488 20.5481L67.2456 21.0536L67.2842 21.0549C67.3891 20.8916 67.5287 20.7634 67.7031 20.6704C67.8788 20.5761 68.0841 20.533 68.3187 20.5412C68.5303 20.5486 68.7065 20.5996 68.8471 20.6941C68.9892 20.7873 69.087 20.9224 69.1406 21.0994C69.1956 21.2764 69.1975 21.493 69.1464 21.7492L68.7434 23.7247L68.135 23.7034L68.5212 21.8007C68.5658 21.5755 68.5421 21.3975 68.4503 21.2667C68.3598 21.1346 68.2108 21.0649 68.0033 21.0576C67.8622 21.0527 67.7302 21.0786 67.6074 21.1354C67.4858 21.1923 67.3817 21.2783 67.2948 21.3933C67.2094 21.5071 67.1488 21.6462 67.1132 21.8106ZM70.5718 25.0266C70.3222 25.0179 70.1144 24.9781 69.9485 24.9071C69.784 24.8362 69.6554 24.7455 69.5628 24.635C69.4716 24.5246 69.4099 24.405 69.3777 24.2763L69.9468 24.0803C69.9719 24.1409 70.0076 24.2053 70.0542 24.2734C70.1006 24.3429 70.1712 24.4031 70.2658 24.4539C70.3619 24.5048 70.4946 24.5332 70.6642 24.5391C70.8948 24.5472 71.0982 24.4979 71.2744 24.3914C71.4506 24.2862 71.5633 24.1123 71.6125 23.8697L71.7296 23.2588L71.6909 23.2574C71.6425 23.3223 71.5762 23.3939 71.4919 23.4724C71.4077 23.5509 71.3001 23.6178 71.1691 23.6729C71.0382 23.7281 70.8771 23.7524 70.6858 23.7457C70.4389 23.7371 70.228 23.672 70.0529 23.5505C69.8793 23.4276 69.7578 23.2517 69.6884 23.0226C69.619 22.792 69.6179 22.5116 69.6851 22.1814C69.751 21.8511 69.8641 21.5699 70.0243 21.3379C70.1858 21.106 70.378 20.9308 70.6008 20.8123C70.825 20.6926 71.0626 20.637 71.3136 20.6458C71.5075 20.6526 71.6577 20.6904 71.7639 20.7593C71.8715 20.8268 71.9503 20.9043 72.0002 20.9915C72.0502 21.0788 72.0862 21.1554 72.1083 21.2214L72.1531 21.2229L72.2542 20.7194L72.8504 20.7402L72.2099 23.9149C72.1571 24.1819 72.051 24.3988 71.8917 24.5657C71.7338 24.7326 71.5401 24.8534 71.3107 24.9282C71.0826 25.0031 70.8363 25.0359 70.5718 25.0266ZM70.911 23.2485C71.0846 23.2546 71.2407 23.2193 71.3791 23.1427C71.5191 23.0647 71.6371 22.9508 71.7334 22.8007C71.8296 22.6493 71.8992 22.4664 71.942 22.2521C71.9846 22.0431 71.989 21.858 71.9553 21.6966C71.9229 21.5353 71.8533 21.4079 71.7465 21.3146C71.6412 21.22 71.501 21.1696 71.326 21.1635C71.1416 21.157 70.9798 21.1989 70.8408 21.2891C70.7019 21.3779 70.5869 21.5015 70.4959 21.6599C70.4061 21.8183 70.3408 21.9966 70.2999 22.1947C70.2602 22.3983 70.2546 22.578 70.2831 22.7338C70.313 22.8896 70.3793 23.0127 70.4821 23.1032C70.5849 23.1937 70.7279 23.2421 70.911 23.2485ZM77.2573 21.6577L76.6862 21.7355C76.6765 21.6633 76.6538 21.5946 76.618 21.5295C76.5836 21.4645 76.5292 21.411 76.4546 21.369C76.38 21.3257 76.2796 21.3019 76.1535 21.2974C75.9785 21.2913 75.8238 21.326 75.6895 21.4014C75.5564 21.4768 75.4783 21.5759 75.455 21.6986C75.4339 21.7984 75.4548 21.8806 75.5177 21.9452C75.5806 22.0085 75.6935 22.0634 75.8562 22.1098L76.3324 22.2404C76.6069 22.3165 76.8013 22.4272 76.9157 22.5724C77.0316 22.7162 77.0673 22.8994 77.0229 23.1218C76.9852 23.3065 76.898 23.4684 76.7614 23.6076C76.6262 23.7468 76.4554 23.8535 76.2491 23.9277C76.0428 24.002 75.8148 24.0347 75.5652 24.026C75.2098 24.0136 74.9357 23.9287 74.7429 23.7713C74.5501 23.6139 74.4558 23.3974 74.46 23.122L75.0654 23.0535C75.0709 23.2071 75.1218 23.325 75.2181 23.4071C75.3158 23.4878 75.4535 23.5314 75.6312 23.5376C75.8346 23.546 76.0063 23.5093 76.1464 23.4273C76.2864 23.3452 76.3681 23.2429 76.3914 23.1202C76.411 23.0245 76.3921 22.9437 76.3346 22.8779C76.2785 22.8121 76.1771 22.7597 76.0305 22.7207L75.5299 22.5871C75.2501 22.5108 75.0544 22.3967 74.9429 22.2449C74.8314 22.093 74.7986 21.9058 74.8444 21.6834C74.8806 21.5014 74.9635 21.3448 75.093 21.2136C75.224 21.081 75.387 20.9801 75.5823 20.9109C75.7776 20.8404 75.992 20.8092 76.2253 20.8173C76.5657 20.8292 76.8189 20.9114 76.9847 21.0638C77.1505 21.2148 77.2414 21.4128 77.2573 21.6577ZM78.7813 24.1383C78.4843 24.128 78.2384 24.0515 78.0437 23.909C77.8491 23.765 77.7154 23.5689 77.6425 23.3207C77.5711 23.0711 77.5676 22.7838 77.6319 22.4589C77.6946 22.1407 77.8081 21.865 77.9725 21.6318C78.1382 21.3987 78.3413 21.2204 78.5819 21.0971C78.8239 20.9739 79.0901 20.9174 79.3803 20.9275C79.6774 20.9379 79.9226 21.015 80.1159 21.1588C80.3105 21.3028 80.4442 21.4995 80.5169 21.7492C80.5897 21.9988 80.5939 22.2868 80.5296 22.613C80.4669 22.9285 80.3521 23.2028 80.1851 23.4359C80.0194 23.6677 79.8163 23.8453 79.5756 23.9686C79.335 24.0918 79.0703 24.1484 78.7813 24.1383ZM78.8337 23.629C79.0291 23.6358 79.2011 23.5903 79.3498 23.4923C79.5 23.3943 79.6241 23.2616 79.7223 23.0939C79.8205 22.9263 79.8901 22.7414 79.9312 22.5392C79.9692 22.3437 79.9748 22.164 79.9479 22.0001C79.9225 21.835 79.8592 21.7011 79.7582 21.5984C79.6572 21.4958 79.5138 21.4413 79.328 21.4348C79.1326 21.4279 78.9592 21.4742 78.8077 21.5734C78.6576 21.6713 78.5335 21.8048 78.4352 21.9738C78.3383 22.1428 78.27 22.3284 78.2304 22.5307C78.1924 22.7249 78.1861 22.9045 78.2115 23.0697C78.237 23.2335 78.3003 23.3661 78.4014 23.4673C78.5024 23.5686 78.6466 23.6225 78.8337 23.629ZM82.1765 24.2569C81.8794 24.2465 81.6335 24.1701 81.4389 24.0275C81.2443 23.8836 81.1105 23.6875 81.0377 23.4392C80.9663 23.1897 80.9627 22.9024 81.027 22.5775C81.0898 22.2593 81.2033 21.9835 81.3676 21.7504C81.5333 21.5172 81.7365 21.339 81.9771 21.2157C82.2191 21.0925 82.4852 21.0359 82.7755 21.0461C83.0725 21.0564 83.3177 21.1336 83.511 21.2774C83.7056 21.4213 83.8393 21.6181 83.9121 21.8677C83.9849 22.1173 83.9891 22.4053 83.9247 22.7316C83.8621 23.0471 83.7472 23.3214 83.5802 23.5545C83.4146 23.7863 83.2114 23.9638 82.9708 24.0871C82.7302 24.2104 82.4654 24.267 82.1765 24.2569ZM82.2289 23.7476C82.4242 23.7544 82.5963 23.7088 82.745 23.6108C82.8951 23.5129 83.0193 23.3801 83.1175 23.2125C83.2157 23.0449 83.2853 22.8599 83.3263 22.6578C83.3643 22.4622 83.37 22.2825 83.3431 22.1187C83.3176 21.9535 83.2544 21.8196 83.1534 21.717C83.0524 21.6144 82.909 21.5598 82.7232 21.5533C82.5278 21.5465 82.3544 21.5927 82.2029 21.692C82.0528 21.7899 81.9286 21.9233 81.8304 22.0923C81.7335 22.2614 81.6652 22.447 81.6255 22.6493C81.5875 22.8435 81.5812 23.0231 81.6067 23.1883C81.6322 23.3521 81.6955 23.4846 81.7965 23.5859C81.8976 23.6871 82.0417 23.741 82.2289 23.7476ZM85.2235 22.443L84.8535 24.2873L84.2452 24.266L84.8751 21.1601L85.4591 21.1805L85.3559 21.686L85.3945 21.6873C85.4994 21.524 85.639 21.3959 85.8134 21.3028C85.9892 21.2085 86.1944 21.1654 86.4291 21.1736C86.6407 21.181 86.8168 21.232 86.9575 21.3265C87.0995 21.4197 87.1974 21.5548 87.2509 21.7318C87.3059 21.9089 87.3078 22.1254 87.2568 22.3816L86.8537 24.3571L86.2453 24.3359L86.6316 22.4331C86.6761 22.2079 86.6525 22.0299 86.5606 21.8991C86.4701 21.767 86.3211 21.6973 86.1136 21.69C85.9725 21.6851 85.8405 21.7111 85.7177 21.7679C85.5962 21.8247 85.492 21.9107 85.4051 22.0257C85.3197 22.1395 85.2591 22.2786 85.2235 22.443Z" fill="var(--fill-0, black)"/>
</g>
</g>
<defs>
<clipPath id="clip0_71_626">
<rect width="43" height="14" fill="white" transform="translate(49.4886 14) rotate(2)"/>
</clipPath>
</defs>
</svg>
