<svg preserveAspectRatio="none" width="100%" height="100%" overflow="visible" style="display: block;" viewBox="0 0 169 80" fill="none" xmlns="http://www.w3.org/2000/svg">
<g id="Frame 16">
<path id="ycxyy2tfqkmozrmeh6 1" d="M59.4087 33.4179C59.2335 33.0675 58.7695 32.7824 58.3764 32.7824H57.5767C57.1849 32.7824 56.7249 33.0715 56.5551 33.4246L50.2181 46.614C50.0416 46.9631 50.2328 47.2122 50.6259 47.2122H52.0902C52.6678 47.2122 52.9326 46.9511 53.0891 46.63C53.2468 46.309 53.5945 45.6108 53.6614 45.4696C53.751 45.2764 54.0305 45.1592 54.4223 45.1592L61.2407 45.1632C61.6338 45.1645 61.8865 45.2378 62.0029 45.4696C62.0791 45.6202 62.4268 46.2477 62.5979 46.5901C62.7704 46.9325 63.0606 47.2136 63.6236 47.2136H65.7484C66.1415 47.2136 66.3127 46.9165 66.1723 46.6407C66.0332 46.3622 59.4087 33.4179 59.4087 33.4179ZM55.4051 43.1208C55.012 43.1208 54.8274 42.8291 54.9932 42.476L57.4898 37.1469C57.6556 36.7926 57.9244 36.7939 58.0862 37.1496L60.5172 42.4787C60.679 42.8344 60.4905 43.1248 60.0987 43.1248L55.4051 43.1208ZM108.373 33.5192V46.6047C108.373 46.9644 108.694 47.2122 109.087 47.2122H110.819C111.212 47.2122 111.533 46.9631 111.533 46.5714V33.4939C111.533 33.1022 111.279 32.7824 110.887 32.7824H109.087C108.695 32.7811 108.373 33.0222 108.373 33.5192ZM79.3558 41.7153C79.1298 41.3955 79.2541 41.0412 79.6299 40.9293C79.6299 40.9293 81.1262 40.4829 81.843 39.8435C82.5597 39.2013 82.9194 38.2754 82.9194 37.0683C82.9194 36.2783 82.7804 35.6148 82.5049 35.0753C82.2294 34.537 81.8336 34.0961 81.3188 33.759C80.804 33.4206 80.1889 33.1715 79.4708 33.0156C78.7527 32.861 77.7832 32.8157 77.7832 32.8157C77.3901 32.7984 76.7482 32.7838 76.3564 32.7838H69.1649C68.7731 32.7838 68.4509 33.1035 68.4509 33.4952V46.5727C68.4509 46.9644 68.7718 47.2136 69.1649 47.2136H70.8672C71.2603 47.2136 71.5813 46.9644 71.5813 46.5727C71.5813 46.5727 71.5826 41.3716 71.5853 41.3716C71.588 41.3716 71.5906 41.3689 71.5906 41.3649C71.5906 41.3609 74.816 41.3569 74.816 41.3569C75.2078 41.3569 75.7146 41.618 75.9419 41.9391L79.2902 46.6367C79.6018 47.0524 79.8973 47.2149 80.2905 47.2149H82.5142C82.9074 47.2149 82.9689 46.8459 82.8325 46.654C82.6988 46.4608 79.3558 41.7153 79.3558 41.7153ZM78.0012 39.0588C77.5599 39.16 77.0638 39.18 77.0638 39.18C76.672 39.1973 76.0301 39.2106 75.637 39.2106H72.3034C71.9102 39.2106 71.5893 38.8909 71.5893 38.4992V35.8493C71.5893 35.4576 71.9102 35.1379 72.3034 35.1379H75.637C76.0301 35.1379 76.672 35.1525 77.0638 35.1685C77.0638 35.1685 77.5599 35.1885 78.0012 35.2898C78.4425 35.391 78.7915 35.5322 79.0469 35.7148C79.3036 35.8986 79.4868 36.1144 79.5978 36.3609C79.7075 36.6087 79.7623 36.8778 79.7623 37.1723C79.7623 37.4654 79.7061 37.7358 79.5978 37.9836C79.4868 38.2314 79.3036 38.4472 79.0469 38.6298C78.7915 38.8163 78.4425 38.9588 78.0012 39.0588ZM129.635 32.7811C129.242 32.7811 128.925 33.0396 128.925 33.4153L128.929 41.7806C128.929 42.1723 128.707 42.2615 128.434 41.9804L120.027 33.2927C119.754 33.0116 119.354 32.7811 118.817 32.7811H117.236C116.739 32.7811 116.521 33.0449 116.521 33.3127V46.6886C116.521 46.9551 116.776 47.2096 117.169 47.2096H118.753C119.144 47.2096 119.42 46.9964 119.42 46.6367C119.42 46.4555 119.428 37.8237 119.428 37.8237C119.428 37.4321 119.65 37.3428 119.921 37.6252L128.687 46.7046C128.965 46.9817 129.303 47.2082 129.905 47.2082H131.095C131.488 47.2082 131.809 46.8885 131.809 46.4968V33.4885C131.809 33.0969 131.488 32.7771 131.095 32.7771H129.635V32.7811ZM95.3581 40.9386C95.1669 41.281 94.854 41.2796 94.6654 40.9372L90.5562 33.4193C90.381 33.0702 90.024 32.7838 89.5239 32.7838H87.2948C86.9016 32.7838 86.5807 33.1035 86.5807 33.4952V46.5568C86.5807 46.9471 86.8388 47.2149 87.2948 47.2149H88.6801C89.0732 47.2149 89.3567 46.9684 89.3567 46.5901C89.3567 46.4089 89.3621 37.091 89.3768 37.091C89.3915 37.091 94.5063 46.5874 94.5063 46.5874C94.6908 46.9325 95.1455 46.9338 95.3354 46.5901C95.3354 46.5901 100.492 37.1176 100.506 37.1176C100.522 37.1176 100.517 46.3183 100.517 46.5901C100.517 46.9671 100.821 47.2149 101.214 47.2149H102.809C103.202 47.2149 103.523 47.0204 103.523 46.5035V33.4952C103.523 33.1035 103.202 32.7838 102.809 32.7838H100.672C100.127 32.7838 99.799 33.0609 99.6037 33.4006L95.3581 40.9386ZM32 39.9833C32 47.0297 39.2343 47.3868 40.6851 47.3868C45.4857 47.3868 47.5143 46.0945 47.5985 46.0385C47.8994 45.8693 48.2644 45.5282 48.2644 44.8888V40.026C48.2644 39.5783 47.898 39.2133 47.4487 39.2133H41.4179C40.9673 39.2133 40.6718 39.5783 40.6718 40.026V40.5296C40.6718 40.9786 40.9673 41.3449 41.4179 41.3449H44.9067C45.2437 41.3449 45.5165 41.618 45.5165 41.9524C45.5165 41.9524 45.5125 44.0841 45.5125 44.22C44.8238 44.5011 41.684 45.4137 39.1621 44.8141C35.5035 43.9428 35.2187 40.9346 35.2187 40.034C35.2187 39.2786 35.446 35.4909 39.939 35.1072C43.5762 34.7968 45.9711 36.2597 45.9952 36.2743C46.4231 36.4955 46.8657 36.3383 47.1037 35.8866C47.1051 35.8826 47.557 34.97 47.557 34.97C47.7456 34.5943 47.6827 34.2053 47.2214 33.8949C47.1906 33.8776 44.6406 32.5 40.6851 32.5C32.2434 32.5013 32 39.2186 32 39.9833ZM135.349 44.2093C136.259 44.2093 137 44.9474 137 45.8546C137 46.7619 136.259 47.5 135.349 47.5C134.438 47.5 133.696 46.7619 133.696 45.8546C133.696 44.9487 134.438 44.2093 135.349 44.2093ZM135.353 47.2549C136.112 47.2549 136.684 46.6447 136.684 45.856C136.684 45.0673 136.112 44.4558 135.353 44.4558C134.584 44.4558 134.011 45.0673 134.011 45.856C134.011 46.6447 134.584 47.2549 135.353 47.2549ZM134.717 44.8888H135.458C135.902 44.8888 136.121 45.0673 136.121 45.431C136.121 45.7414 135.925 45.9652 135.623 45.9652L136.172 46.8179H135.838L135.298 45.9652H135.033V46.8179H134.717V44.8888ZM135.033 45.7188H135.409C135.651 45.7188 135.807 45.6695 135.807 45.4177C135.807 45.1978 135.611 45.1352 135.409 45.1352H135.033V45.7188Z" fill="var(--fill-0, black)"/>
<g id="coming_soon_label 3" clip-path="url(#clip0_71_620)">
<path id="Vector" d="M99.9664 13.5255L72.545 14.4831C68.2503 14.633 64.8782 17.8867 65.0131 21.7503C65.148 25.614 68.7389 28.6245 73.0336 28.4745L100.455 27.5169C104.75 27.367 108.122 24.1133 107.987 20.2497C107.852 16.386 104.261 13.3755 99.9664 13.5255Z" fill="var(--fill-0, #50DBFF)"/>
<path id="Vector_2" d="M70.3899 23.6737C70.086 23.6843 69.8347 23.6245 69.6359 23.4944C69.4371 23.3628 69.2955 23.177 69.2111 22.937C69.1266 22.6969 69.1047 22.4194 69.1453 22.1043C69.1858 21.7853 69.2811 21.5016 69.4314 21.2534C69.5829 21.0037 69.7764 20.8062 70.0117 20.6608C70.2484 20.5155 70.5139 20.4376 70.8082 20.4274C71.0456 20.4191 71.2513 20.456 71.4253 20.5382C71.5993 20.619 71.7331 20.7365 71.8267 20.8907C71.9204 21.0449 71.9648 21.2273 71.9599 21.4379L71.3678 21.4586C71.3532 21.3125 71.2945 21.1883 71.1918 21.086C71.0891 20.9837 70.9414 20.9359 70.7488 20.9426C70.5792 20.9485 70.4248 20.9987 70.2855 21.0932C70.1461 21.1863 70.0305 21.3166 69.9385 21.4841C69.8466 21.6502 69.7868 21.8451 69.7593 22.0687C69.7293 22.2978 69.7382 22.4943 69.786 22.6583C69.8339 22.8222 69.9156 22.9477 70.0314 23.0346C70.1472 23.1215 70.2905 23.162 70.4614 23.156C70.5781 23.1519 70.6859 23.1271 70.7848 23.0816C70.885 23.0346 70.9724 22.9698 71.0469 22.8871C71.1228 22.8044 71.1805 22.706 71.2199 22.5919L71.8141 22.5712C71.7628 22.7753 71.6715 22.959 71.54 23.1224C71.4099 23.2858 71.2474 23.4164 71.0525 23.5141C70.8576 23.6119 70.6367 23.6651 70.3899 23.6737ZM73.606 23.5614C73.3089 23.5718 73.0583 23.5127 72.8541 23.384C72.6499 23.254 72.5029 23.0678 72.4129 22.8252C72.3243 22.5812 72.3007 22.2949 72.3422 21.9663C72.3825 21.6444 72.4766 21.3615 72.6243 21.1174C72.7733 20.8733 72.9635 20.6813 73.1949 20.5415C73.4277 20.4017 73.6893 20.3267 73.9796 20.3166C74.2766 20.3062 74.5266 20.3661 74.7294 20.4961C74.9336 20.6261 75.0807 20.8131 75.1707 21.057C75.2607 21.3009 75.285 21.5879 75.2435 21.9179C75.2031 22.237 75.1077 22.5186 74.9573 22.7628C74.8082 23.0056 74.618 23.1969 74.3865 23.3366C74.1551 23.4764 73.8949 23.5513 73.606 23.5614ZM73.6227 23.0497C73.818 23.0428 73.9865 22.9854 74.128 22.8773C74.271 22.7691 74.3856 22.628 74.4718 22.4539C74.5581 22.2798 74.6146 22.0905 74.6415 21.886C74.6658 21.6883 74.6588 21.5086 74.6206 21.347C74.5837 21.1841 74.5113 21.0549 74.4034 20.9596C74.2955 20.8642 74.1486 20.8198 73.9627 20.8263C73.7674 20.8331 73.5976 20.8913 73.4534 21.0009C73.3105 21.109 73.1959 21.2508 73.1097 21.4263C73.0248 21.6017 72.9697 21.7916 72.9442 21.9961C72.9198 22.1925 72.9261 22.3721 72.963 22.5351C72.9999 22.6968 73.0723 22.8246 73.1802 22.9185C73.288 23.0125 73.4355 23.0562 73.6227 23.0497ZM75.6702 23.4262L76.082 20.2839L76.666 20.2635L76.5983 20.775L76.637 20.7736C76.7259 20.5981 76.8501 20.4594 77.0095 20.3574C77.1702 20.2541 77.3544 20.1988 77.5619 20.1915C77.7681 20.1843 77.936 20.2273 78.0655 20.3206C78.1965 20.4137 78.2846 20.545 78.3298 20.7145L78.3624 20.7134C78.4569 20.5417 78.5927 20.4033 78.7696 20.298C78.9466 20.1927 79.1476 20.1361 79.3728 20.1283C79.6536 20.1185 79.8724 20.2004 80.0293 20.3742C80.1874 20.5465 80.2428 20.812 80.1956 21.1707L79.9188 23.2778L79.3084 23.2992L79.579 21.2492C79.6055 21.0352 79.5676 20.8831 79.4653 20.793C79.363 20.7015 79.2318 20.6586 79.0717 20.6642C78.8737 20.6711 78.7116 20.7378 78.5857 20.8644C78.4597 20.9896 78.3851 21.1477 78.3618 21.3386L78.0957 23.3415L77.4913 23.3626L77.7668 21.2738C77.7879 21.102 77.7519 20.9668 77.6589 20.8683C77.5671 20.7683 77.4365 20.7213 77.2669 20.7272C77.1516 20.7312 77.0407 20.7656 76.9344 20.8305C76.8293 20.8952 76.7407 20.9825 76.6685 21.0923C76.5962 21.202 76.551 21.3271 76.5329 21.4676L76.2786 23.405L75.6702 23.4262ZM80.6749 23.2514L81.0867 20.1091L81.6951 20.0879L81.2832 23.2302L80.6749 23.2514ZM81.501 19.606C81.3952 19.6097 81.3044 19.5775 81.2287 19.5095C81.1543 19.4402 81.1181 19.356 81.1201 19.2568C81.122 19.1562 81.1611 19.0693 81.2373 18.9961C81.3134 18.9215 81.4038 18.8824 81.5082 18.8787C81.614 18.875 81.7041 18.9078 81.7785 18.9772C81.8529 19.0452 81.8898 19.1294 81.8892 19.2299C81.8872 19.3291 81.8481 19.416 81.772 19.4906C81.6971 19.5638 81.6068 19.6023 81.501 19.606ZM82.8953 21.3167L82.6548 23.1823L82.0465 23.2035L82.4582 20.0612L83.0422 20.0408L82.9745 20.5523L83.0132 20.551C83.1064 20.3807 83.2367 20.2432 83.4042 20.1382C83.5729 20.0318 83.7747 19.9746 84.0094 19.9664C84.221 19.959 84.4002 19.9975 84.5471 20.082C84.6954 20.1651 84.8024 20.293 84.8682 20.4658C84.9353 20.6386 84.9524 20.8545 84.9193 21.1137L84.655 23.1124L84.0466 23.1337L84.2992 21.2086C84.3279 20.9809 84.2919 20.805 84.1912 20.6809C84.0917 20.5554 83.9382 20.4963 83.7307 20.5035C83.5896 20.5084 83.4598 20.5435 83.3412 20.6088C83.2239 20.6739 83.126 20.767 83.0474 20.8878C82.9701 21.0073 82.9194 21.1503 82.8953 21.3167ZM86.5698 24.2837C86.3202 24.2924 86.1102 24.2672 85.9397 24.208C85.7706 24.1487 85.636 24.0672 85.5359 23.9634C85.4373 23.8597 85.3674 23.7447 85.3263 23.6185L85.8803 23.3832C85.9096 23.442 85.9497 23.5037 86.0009 23.5684C86.0521 23.6345 86.1267 23.6896 86.2247 23.7337C86.324 23.7778 86.4584 23.7968 86.628 23.7909C86.8586 23.7829 87.0581 23.7195 87.2264 23.601C87.3948 23.4838 87.4951 23.3024 87.5273 23.057L87.6015 22.4394L87.5628 22.4407C87.519 22.5088 87.4578 22.5849 87.3793 22.6691C87.3007 22.7533 87.1981 22.8275 87.0713 22.8916C86.9445 22.9558 86.7855 22.9912 86.5942 22.9979C86.3473 23.0065 86.1323 22.9563 85.9492 22.8473C85.7675 22.7369 85.634 22.5699 85.5488 22.3461C85.4635 22.121 85.4428 21.8414 85.4869 21.5072C85.5295 21.1731 85.6227 20.8848 85.7663 20.6422C85.9113 20.3995 86.0908 20.2114 86.3048 20.0776C86.5201 19.9425 86.7532 19.8705 87.0042 19.8618C87.1981 19.855 87.3506 19.8823 87.4613 19.9435C87.5734 20.0034 87.6574 20.0752 87.7133 20.1588C87.7692 20.2423 87.8105 20.3163 87.8372 20.3805L87.882 20.3789L87.9477 19.8695L88.5439 19.8487L88.1264 23.0604C88.0923 23.3305 88.0017 23.5542 87.8544 23.7318C87.7085 23.9093 87.5237 24.0434 87.3 24.134C87.0777 24.2245 86.8344 24.2745 86.5698 24.2837ZM86.7841 22.4862C86.9577 22.4802 87.111 22.4341 87.2438 22.348C87.3779 22.2605 87.4877 22.1386 87.5733 21.9821C87.6587 21.8244 87.7154 21.6371 87.7431 21.4203C87.771 21.2089 87.7625 21.0239 87.7176 20.8653C87.674 20.7066 87.5958 20.5844 87.4828 20.4988C87.371 20.4117 87.2277 20.3712 87.0527 20.3773C86.8683 20.3838 86.7099 20.4368 86.5775 20.5365C86.4451 20.6348 86.339 20.7661 86.2592 20.9304C86.1807 21.0947 86.128 21.2771 86.1011 21.4776C86.0757 21.6835 86.0826 21.8631 86.1219 22.0166C86.1626 22.1699 86.2373 22.2881 86.3462 22.3712C86.455 22.4543 86.601 22.4926 86.7841 22.4862ZM93.0041 20.4566L92.4398 20.5741C92.425 20.5027 92.3976 20.4357 92.3574 20.3733C92.3185 20.3109 92.2605 20.2613 92.1831 20.2246C92.1057 20.1866 92.0039 20.1698 91.8778 20.1742C91.7028 20.1803 91.5509 20.2257 91.4221 20.3103C91.2947 20.3948 91.2236 20.4991 91.209 20.6232C91.1949 20.7241 91.2214 20.8047 91.2887 20.8647C91.3559 20.9235 91.4724 20.9704 91.6379 21.0053L92.1221 21.1024C92.4011 21.1592 92.6028 21.256 92.7271 21.3929C92.8527 21.5283 92.9011 21.7086 92.8723 21.9335C92.8476 22.1204 92.7719 22.288 92.6454 22.4363C92.5202 22.5846 92.3572 22.703 92.1566 22.7914C91.956 22.8799 91.7309 22.9285 91.4813 22.9372C91.1259 22.9496 90.8465 22.884 90.6432 22.7404C90.4399 22.5968 90.3307 22.3875 90.3157 22.1124L90.9149 22.0019C90.9311 22.1548 90.9901 22.2688 91.0918 22.344C91.1949 22.4177 91.3353 22.4515 91.513 22.4453C91.7165 22.4396 91.8853 22.3909 92.0193 22.2994C92.1532 22.2078 92.2275 22.1 92.2422 21.9759C92.2552 21.8791 92.2306 21.7998 92.1687 21.7382C92.1082 21.6765 92.0034 21.6313 91.8543 21.6026L91.3457 21.5042C91.0612 21.4477 90.8581 21.3475 90.7362 21.2038C90.6144 21.06 90.5686 20.8756 90.5988 20.6506C90.6222 20.4665 90.694 20.3045 90.814 20.1645C90.9354 20.0232 91.0911 19.9112 91.2811 19.8285C91.471 19.7445 91.6826 19.6984 91.9159 19.6903C92.2564 19.6784 92.5146 19.7427 92.6907 19.8831C92.8666 20.0223 92.9711 20.2134 93.0041 20.4566ZM94.6974 22.8249C94.4003 22.8352 94.1497 22.7761 93.9455 22.6475C93.7414 22.5175 93.5943 22.3312 93.5043 22.0887C93.4157 21.8447 93.3921 21.5584 93.4336 21.2297C93.474 20.9079 93.568 20.625 93.7156 20.3809C93.8647 20.1367 94.0549 19.9448 94.2863 19.805C94.5191 19.6652 94.7807 19.5902 95.0709 19.5801C95.368 19.5697 95.618 19.6295 95.8208 19.7596C96.025 19.8896 96.1721 20.0765 96.2621 20.3205C96.3521 20.5644 96.3764 20.8514 96.335 21.1813C96.2945 21.5004 96.1991 21.7821 96.0487 22.0263C95.8996 22.269 95.7094 22.4603 95.4779 22.6001C95.2465 22.7399 94.9863 22.8148 94.6974 22.8249ZM94.7141 22.3131C94.9095 22.3063 95.0779 22.2489 95.2195 22.1407C95.3624 22.0326 95.4769 21.8915 95.5632 21.7174C95.6495 21.5433 95.706 21.354 95.7329 21.1494C95.7572 20.9517 95.7502 20.7721 95.712 20.6105C95.6751 20.4475 95.6026 20.3184 95.4947 20.223C95.3868 20.1277 95.24 20.0833 95.0541 20.0898C94.8588 20.0966 94.689 20.1548 94.5448 20.2643C94.4019 20.3725 94.2873 20.5143 94.2011 20.6897C94.1162 20.8651 94.0611 21.0551 94.0356 21.2596C94.0113 21.456 94.0175 21.6356 94.0544 21.7986C94.0913 21.9602 94.1637 22.088 94.2715 22.182C94.3794 22.276 94.527 22.3197 94.7141 22.3131ZM98.0925 22.7063C97.7954 22.7167 97.5449 22.6576 97.3407 22.529C97.1365 22.3989 96.9894 22.2127 96.8995 21.9701C96.8108 21.7261 96.7873 21.4398 96.8287 21.1112C96.8691 20.7894 96.9631 20.5064 97.1108 20.2623C97.2598 20.0182 97.45 19.8262 97.6815 19.6864C97.9143 19.5467 98.1758 19.4717 98.4661 19.4615C98.7632 19.4511 99.0131 19.511 99.216 19.641C99.4201 19.771 99.5673 19.958 99.6573 20.2019C99.7473 20.4458 99.7716 20.7328 99.7301 21.0628C99.6896 21.3819 99.5942 21.6635 99.4438 21.9077C99.2948 22.1505 99.1045 22.3418 98.8731 22.4815C98.6417 22.6213 98.3814 22.6962 98.0925 22.7063ZM98.1093 22.1946C98.3046 22.1878 98.4731 22.1303 98.6146 22.0222C98.7575 21.914 98.8721 21.7729 98.9584 21.5988C99.0446 21.4247 99.1012 21.2354 99.128 21.0309C99.1523 20.8332 99.1454 20.6535 99.1071 20.4919C99.0702 20.329 98.9978 20.1998 98.8899 20.1045C98.782 20.0091 98.6351 19.9647 98.4493 19.9712C98.254 19.978 98.0842 20.0362 97.94 20.1458C97.7971 20.254 97.6825 20.3957 97.5963 20.5712C97.5114 20.7466 97.4562 20.9365 97.4308 21.1411C97.4064 21.3374 97.4127 21.517 97.4496 21.6801C97.4865 21.8417 97.5589 21.9695 97.6667 22.0634C97.7746 22.1574 97.9221 22.2011 98.1093 22.1946ZM101.006 20.6843L100.765 22.5499L100.157 22.5711L100.569 19.4288L101.153 19.4084L101.085 19.9199L101.124 19.9185C101.217 19.7483 101.347 19.6107 101.514 19.5058C101.683 19.3994 101.885 19.3421 102.12 19.3339C102.331 19.3265 102.511 19.3651 102.657 19.4495C102.806 19.5326 102.913 19.6606 102.979 19.8334C103.046 20.0062 103.063 20.2221 103.03 20.4812L102.765 22.48L102.157 22.5013L102.41 20.5762C102.438 20.3485 102.402 20.1726 102.301 20.0484C102.202 19.923 102.049 19.8638 101.841 19.8711C101.7 19.876 101.57 19.9111 101.452 19.9763C101.334 20.0415 101.236 20.1346 101.158 20.2554C101.08 20.3749 101.03 20.5178 101.006 20.6843Z" fill="var(--fill-0, black)"/>
</g>
</g>
<defs>
<clipPath id="clip0_71_620">
<rect width="43" height="14" fill="white" transform="translate(64.7688 14.7546) rotate(-2)"/>
</clipPath>
</defs>
</svg>
