<svg preserveAspectRatio="none" width="100%" height="100%" overflow="visible" style="display: block;" viewBox="0 0 169 80" fill="none" xmlns="http://www.w3.org/2000/svg">
<g id="Frame 16">
<path id="ycxyy2tfqkmozrmeh6 1" d="M59.4087 33.4179C59.2335 33.0675 58.7695 32.7824 58.3764 32.7824H57.5767C57.1849 32.7824 56.7249 33.0715 56.5551 33.4246L50.2181 46.614C50.0416 46.9631 50.2328 47.2122 50.6259 47.2122H52.0902C52.6678 47.2122 52.9326 46.9511 53.0891 46.63C53.2468 46.309 53.5945 45.6108 53.6614 45.4696C53.751 45.2764 54.0305 45.1592 54.4223 45.1592L61.2407 45.1632C61.6338 45.1645 61.8865 45.2378 62.0029 45.4696C62.0791 45.6202 62.4268 46.2477 62.5979 46.5901C62.7704 46.9325 63.0606 47.2136 63.6236 47.2136H65.7484C66.1415 47.2136 66.3127 46.9165 66.1723 46.6407C66.0332 46.3622 59.4087 33.4179 59.4087 33.4179ZM55.4051 43.1208C55.012 43.1208 54.8274 42.8291 54.9932 42.476L57.4898 37.1469C57.6556 36.7926 57.9244 36.7939 58.0862 37.1496L60.5172 42.4787C60.679 42.8344 60.4905 43.1248 60.0987 43.1248L55.4051 43.1208ZM108.373 33.5192V46.6047C108.373 46.9644 108.694 47.2122 109.087 47.2122H110.819C111.212 47.2122 111.533 46.9631 111.533 46.5714V33.4939C111.533 33.1022 111.279 32.7824 110.887 32.7824H109.087C108.695 32.7811 108.373 33.0222 108.373 33.5192ZM79.3558 41.7153C79.1298 41.3955 79.2541 41.0412 79.6299 40.9293C79.6299 40.9293 81.1262 40.4829 81.843 39.8435C82.5597 39.2013 82.9194 38.2754 82.9194 37.0683C82.9194 36.2783 82.7804 35.6148 82.5049 35.0753C82.2294 34.537 81.8336 34.0961 81.3188 33.759C80.804 33.4206 80.1889 33.1715 79.4708 33.0156C78.7527 32.861 77.7832 32.8157 77.7832 32.8157C77.3901 32.7984 76.7482 32.7838 76.3564 32.7838H69.1649C68.7731 32.7838 68.4509 33.1035 68.4509 33.4952V46.5727C68.4509 46.9644 68.7718 47.2136 69.1649 47.2136H70.8672C71.2603 47.2136 71.5813 46.9644 71.5813 46.5727C71.5813 46.5727 71.5826 41.3716 71.5853 41.3716C71.588 41.3716 71.5906 41.3689 71.5906 41.3649C71.5906 41.3609 74.816 41.3569 74.816 41.3569C75.2078 41.3569 75.7146 41.618 75.9419 41.9391L79.2902 46.6367C79.6018 47.0524 79.8973 47.2149 80.2905 47.2149H82.5142C82.9074 47.2149 82.9689 46.8459 82.8325 46.654C82.6988 46.4608 79.3558 41.7153 79.3558 41.7153ZM78.0012 39.0588C77.5599 39.16 77.0638 39.18 77.0638 39.18C76.672 39.1973 76.0301 39.2106 75.637 39.2106H72.3034C71.9102 39.2106 71.5893 38.8909 71.5893 38.4992V35.8493C71.5893 35.4576 71.9102 35.1379 72.3034 35.1379H75.637C76.0301 35.1379 76.672 35.1525 77.0638 35.1685C77.0638 35.1685 77.5599 35.1885 78.0012 35.2898C78.4425 35.391 78.7915 35.5322 79.0469 35.7148C79.3036 35.8986 79.4868 36.1144 79.5978 36.3609C79.7075 36.6087 79.7623 36.8778 79.7623 37.1723C79.7623 37.4654 79.7061 37.7358 79.5978 37.9836C79.4868 38.2314 79.3036 38.4472 79.0469 38.6298C78.7915 38.8163 78.4425 38.9588 78.0012 39.0588ZM129.635 32.7811C129.242 32.7811 128.925 33.0396 128.925 33.4153L128.929 41.7806C128.929 42.1723 128.707 42.2615 128.434 41.9804L120.027 33.2927C119.754 33.0116 119.354 32.7811 118.817 32.7811H117.236C116.739 32.7811 116.521 33.0449 116.521 33.3127V46.6886C116.521 46.9551 116.776 47.2096 117.169 47.2096H118.753C119.144 47.2096 119.42 46.9964 119.42 46.6367C119.42 46.4555 119.428 37.8237 119.428 37.8237C119.428 37.4321 119.65 37.3428 119.921 37.6252L128.687 46.7046C128.965 46.9817 129.303 47.2082 129.905 47.2082H131.095C131.488 47.2082 131.809 46.8885 131.809 46.4968V33.4885C131.809 33.0969 131.488 32.7771 131.095 32.7771H129.635V32.7811ZM95.3581 40.9386C95.1669 41.281 94.854 41.2796 94.6654 40.9372L90.5562 33.4193C90.381 33.0702 90.024 32.7838 89.5239 32.7838H87.2948C86.9016 32.7838 86.5807 33.1035 86.5807 33.4952V46.5568C86.5807 46.9471 86.8388 47.2149 87.2948 47.2149H88.6801C89.0732 47.2149 89.3567 46.9684 89.3567 46.5901C89.3567 46.4089 89.3621 37.091 89.3768 37.091C89.3915 37.091 94.5063 46.5874 94.5063 46.5874C94.6908 46.9325 95.1455 46.9338 95.3354 46.5901C95.3354 46.5901 100.492 37.1176 100.506 37.1176C100.522 37.1176 100.517 46.3183 100.517 46.5901C100.517 46.9671 100.821 47.2149 101.214 47.2149H102.809C103.202 47.2149 103.523 47.0204 103.523 46.5035V33.4952C103.523 33.1035 103.202 32.7838 102.809 32.7838H100.672C100.127 32.7838 99.799 33.0609 99.6037 33.4006L95.3581 40.9386ZM32 39.9833C32 47.0297 39.2343 47.3868 40.6851 47.3868C45.4857 47.3868 47.5143 46.0945 47.5985 46.0385C47.8994 45.8693 48.2644 45.5282 48.2644 44.8888V40.026C48.2644 39.5783 47.898 39.2133 47.4487 39.2133H41.4179C40.9673 39.2133 40.6718 39.5783 40.6718 40.026V40.5296C40.6718 40.9786 40.9673 41.3449 41.4179 41.3449H44.9067C45.2437 41.3449 45.5165 41.618 45.5165 41.9524C45.5165 41.9524 45.5125 44.0841 45.5125 44.22C44.8238 44.5011 41.684 45.4137 39.1621 44.8141C35.5035 43.9428 35.2187 40.9346 35.2187 40.034C35.2187 39.2786 35.446 35.4909 39.939 35.1072C43.5762 34.7968 45.9711 36.2597 45.9952 36.2743C46.4231 36.4955 46.8657 36.3383 47.1037 35.8866C47.1051 35.8826 47.557 34.97 47.557 34.97C47.7456 34.5943 47.6827 34.2053 47.2214 33.8949C47.1906 33.8776 44.6406 32.5 40.6851 32.5C32.2434 32.5013 32 39.2186 32 39.9833ZM135.349 44.2093C136.259 44.2093 137 44.9474 137 45.8546C137 46.7619 136.259 47.5 135.349 47.5C134.438 47.5 133.696 46.7619 133.696 45.8546C133.696 44.9487 134.438 44.2093 135.349 44.2093ZM135.353 47.2549C136.112 47.2549 136.684 46.6447 136.684 45.856C136.684 45.0673 136.112 44.4558 135.353 44.4558C134.584 44.4558 134.011 45.0673 134.011 45.856C134.011 46.6447 134.584 47.2549 135.353 47.2549ZM134.717 44.8888H135.458C135.902 44.8888 136.121 45.0673 136.121 45.431C136.121 45.7414 135.925 45.9652 135.623 45.9652L136.172 46.8179H135.838L135.298 45.9652H135.033V46.8179H134.717V44.8888ZM135.033 45.7188H135.409C135.651 45.7188 135.807 45.6695 135.807 45.4177C135.807 45.1978 135.611 45.1352 135.409 45.1352H135.033V45.7188Z" fill="var(--fill-0, white)"/>
<g id="coming_soon_label 3" clip-path="url(#clip0_167_2039)">
<path id="Vector" d="M100.219 14H72.781C68.4837 14 65 17.134 65 21C65 24.866 68.4837 28 72.781 28H100.219C104.516 28 108 24.866 108 21C108 17.134 104.516 14 100.219 14Z" fill="var(--fill-0, #2B2B2B)"/>
<path id="Vector_2" d="M70.3064 23.1099C70.0023 23.1099 69.7533 23.0414 69.5592 22.9043C69.3651 22.7659 69.23 22.5753 69.154 22.3325C69.078 22.0896 69.0658 21.8114 69.1174 21.498C69.1689 21.1806 69.2741 20.9004 69.4329 20.6575C69.5931 20.4133 69.7933 20.2227 70.0335 20.0856C70.2752 19.9486 70.5432 19.8801 70.8378 19.8801C71.0753 19.8801 71.2796 19.9242 71.4506 20.0124C71.6216 20.0992 71.7513 20.2213 71.8395 20.3787C71.9277 20.5361 71.9657 20.7199 71.9535 20.9302H71.361C71.3515 20.7837 71.2972 20.6575 71.1981 20.5517C71.099 20.4459 70.9531 20.3929 70.7604 20.3929C70.5907 20.3929 70.4346 20.4377 70.2921 20.5273C70.1496 20.6155 70.0295 20.7416 69.9317 20.9058C69.834 21.0686 69.7675 21.2613 69.7322 21.4838C69.6942 21.7117 69.6963 21.9085 69.7383 22.074C69.7804 22.2395 69.8578 22.3677 69.9704 22.4586C70.0831 22.5496 70.2249 22.595 70.396 22.595C70.5127 22.595 70.6213 22.574 70.7217 22.5319C70.8235 22.4885 70.9131 22.4267 70.9905 22.3467C71.0692 22.2666 71.1302 22.1703 71.1737 22.0577H71.7682C71.7098 22.2599 71.6121 22.4403 71.475 22.599C71.3393 22.7578 71.1723 22.8826 70.9742 22.9735C70.776 23.0644 70.5534 23.1099 70.3064 23.1099ZM73.5244 23.1099C73.2272 23.1099 72.9788 23.0421 72.7792 22.9064C72.5797 22.7693 72.4393 22.578 72.3578 22.3325C72.2777 22.0855 72.2641 21.7986 72.3171 21.4716C72.3686 21.1514 72.4725 20.8719 72.6286 20.6331C72.786 20.3943 72.9829 20.2091 73.219 20.0775C73.4565 19.9459 73.7206 19.8801 74.011 19.8801C74.3083 19.8801 74.556 19.9486 74.7542 20.0856C74.9537 20.2227 75.0942 20.4147 75.1756 20.6616C75.2571 20.9085 75.2713 21.1962 75.2184 21.5245C75.1668 21.842 75.0616 22.1201 74.9028 22.3589C74.7453 22.5963 74.5485 22.7809 74.3124 22.9125C74.0762 23.0441 73.8135 23.1099 73.5244 23.1099ZM73.5591 22.599C73.7545 22.599 73.9248 22.5475 74.0701 22.4444C74.2167 22.3413 74.3361 22.2043 74.4284 22.0333C74.5207 21.8623 74.5838 21.6751 74.6178 21.4716C74.649 21.2749 74.6483 21.0951 74.6157 20.9323C74.5845 20.7681 74.5166 20.6365 74.4121 20.5374C74.3076 20.4384 74.1624 20.3889 73.9764 20.3889C73.781 20.3889 73.6093 20.4411 73.4613 20.5456C73.3147 20.6487 73.1953 20.7864 73.103 20.9587C73.0121 21.1311 72.9503 21.3189 72.9177 21.5225C72.8865 21.7179 72.8865 21.8976 72.9177 22.0618C72.9489 22.2246 73.0168 22.3549 73.1213 22.4525C73.2258 22.5502 73.3717 22.599 73.5591 22.599ZM75.5921 23.0468L76.1134 19.9208H76.6977L76.6122 20.4296H76.6509C76.7459 20.2573 76.8748 20.123 77.0377 20.0266C77.2019 19.9289 77.3879 19.8801 77.5956 19.8801C77.8019 19.8801 77.9682 19.9289 78.0944 20.0266C78.222 20.1243 78.3054 20.2586 78.3448 20.4296H78.3774C78.4778 20.2613 78.6183 20.1277 78.7988 20.0287C78.9793 19.9296 79.1823 19.8801 79.4076 19.8801C79.6886 19.8801 79.9044 19.9697 80.055 20.1488C80.2071 20.3265 80.2532 20.5938 80.1935 20.9506L79.8433 23.0468H79.2325L79.5745 21.0076C79.6085 20.7946 79.5759 20.6413 79.4768 20.5476C79.3777 20.4527 79.2481 20.4052 79.088 20.4052C78.8898 20.4052 78.7255 20.4662 78.5952 20.5883C78.4649 20.7091 78.3848 20.8644 78.355 21.0544L78.0191 23.0468H77.4144L77.7625 20.9689C77.7897 20.798 77.7584 20.6616 77.6689 20.5598C77.5806 20.4567 77.4517 20.4052 77.282 20.4052C77.1666 20.4052 77.0547 20.4357 76.9461 20.4968C76.8388 20.5578 76.7472 20.6419 76.6712 20.7491C76.5952 20.8563 76.5457 20.9798 76.5226 21.1195L76.2009 23.0468H75.5921ZM80.5998 23.0468L81.1211 19.9208H81.7298L81.2086 23.0468H80.5998ZM81.5527 19.4324C81.4468 19.4324 81.3572 19.3971 81.2839 19.3265C81.212 19.2546 81.1787 19.1692 81.1842 19.0701C81.1896 18.9697 81.2317 18.8842 81.3104 18.8137C81.3891 18.7418 81.4808 18.7058 81.5853 18.7058C81.6911 18.7058 81.78 18.7418 81.852 18.8137C81.9239 18.8842 81.9579 18.9697 81.9538 19.0701C81.9484 19.1692 81.9063 19.2546 81.8275 19.3265C81.7502 19.3971 81.6586 19.4324 81.5527 19.4324ZM82.8864 21.1907L82.581 23.0468H81.9723L82.4935 19.9208H83.0778L82.9923 20.4296H83.031C83.1301 20.2627 83.2651 20.1298 83.4362 20.0307C83.6085 19.9303 83.8121 19.8801 84.047 19.8801C84.2587 19.8801 84.4365 19.9249 84.5804 20.0144C84.7256 20.1026 84.8281 20.2342 84.8878 20.4092C84.9489 20.5843 84.9584 20.8007 84.9163 21.0585L84.5824 23.0468H83.9737L84.2933 21.1317C84.3299 20.9051 84.3001 20.7281 84.2037 20.6005C84.1087 20.4717 83.9574 20.4072 83.7497 20.4072C83.6085 20.4072 83.4776 20.4377 83.3567 20.4988C83.2373 20.5598 83.1362 20.6494 83.0534 20.7674C82.972 20.8841 82.9163 21.0252 82.8864 21.1907ZM86.4552 24.2842C86.2054 24.2842 85.9964 24.2516 85.8281 24.1865C85.6612 24.1214 85.5295 24.0352 85.4331 23.928C85.3381 23.8209 85.2723 23.7035 85.2356 23.5759L85.7975 23.3602C85.8247 23.4199 85.8627 23.483 85.9116 23.5495C85.9605 23.6173 86.0331 23.675 86.1294 23.7225C86.2272 23.77 86.3608 23.7937 86.5305 23.7937C86.7613 23.7937 86.9628 23.7374 87.1352 23.6248C87.3076 23.5135 87.4141 23.3358 87.4549 23.0916L87.5506 22.477H87.5119C87.4657 22.5435 87.4019 22.6174 87.3205 22.6988C87.239 22.7802 87.1339 22.8508 87.0049 22.9104C86.8759 22.9701 86.7158 23 86.5244 23C86.2774 23 86.0643 22.9423 85.8851 22.827C85.7073 22.7103 85.5797 22.5387 85.5024 22.3121C85.425 22.0842 85.4141 21.804 85.4698 21.4716C85.5241 21.1392 85.6272 20.8542 85.7792 20.6168C85.9326 20.3794 86.1186 20.1976 86.3371 20.0714C86.557 19.9439 86.7925 19.8801 87.0436 19.8801C87.2377 19.8801 87.389 19.9127 87.4976 19.9778C87.6076 20.0415 87.689 20.1162 87.7419 20.2016C87.7949 20.2871 87.8335 20.3624 87.858 20.4276H87.9028L87.9862 19.9208H88.5828L88.0535 23.116C88.01 23.3846 87.9116 23.6051 87.7582 23.7774C87.6062 23.9497 87.4168 24.0773 87.1902 24.16C86.9649 24.2428 86.7199 24.2842 86.4552 24.2842ZM86.7321 22.4953C86.9058 22.4953 87.0606 22.4546 87.1963 22.3732C87.3334 22.2904 87.4474 22.1724 87.5384 22.019C87.6293 21.8644 87.6924 21.6792 87.7277 21.4634C87.763 21.2532 87.7609 21.068 87.7216 20.9079C87.6836 20.7478 87.6096 20.6229 87.4997 20.5334C87.391 20.4425 87.2492 20.397 87.0741 20.397C86.8895 20.397 86.7294 20.4445 86.5936 20.5395C86.4579 20.6331 86.3473 20.7606 86.2618 20.9221C86.1776 21.0836 86.1186 21.264 86.0846 21.4634C86.0521 21.6683 86.0528 21.8481 86.0867 22.0028C86.122 22.1574 86.1925 22.2782 86.2984 22.365C86.4043 22.4518 86.5489 22.4953 86.7321 22.4953ZM93.0191 20.684L92.451 20.7817C92.4388 20.7098 92.4137 20.6419 92.3757 20.5782C92.339 20.5144 92.2827 20.4628 92.2067 20.4235C92.1307 20.3828 92.0296 20.3624 91.9033 20.3624C91.7282 20.3624 91.5749 20.4024 91.4432 20.4825C91.3129 20.5625 91.2382 20.6643 91.2192 20.7878C91.2016 20.8882 91.2254 20.9696 91.2905 21.032C91.3556 21.0931 91.4704 21.1439 91.6346 21.1846L92.1151 21.2986C92.392 21.3651 92.5902 21.4689 92.7096 21.61C92.8304 21.7497 92.8725 21.9315 92.8358 22.1554C92.8046 22.3413 92.7232 22.5061 92.5915 22.6499C92.4612 22.7938 92.2942 22.9064 92.0907 22.9878C91.887 23.0692 91.6604 23.1099 91.4106 23.1099C91.055 23.1099 90.7781 23.0346 90.58 22.884C90.3818 22.7334 90.28 22.5204 90.2745 22.245L90.8772 22.1554C90.8881 22.3087 90.9431 22.4247 91.0421 22.5034C91.1426 22.5807 91.2817 22.6194 91.4595 22.6194C91.6631 22.6208 91.8334 22.578 91.9705 22.4912C92.1076 22.4044 92.1857 22.2992 92.2047 22.1758C92.221 22.0794 92.1992 21.9994 92.1395 21.9356C92.0812 21.8718 91.978 21.823 91.83 21.7891L91.3251 21.6731C91.0428 21.6066 90.8433 21.4994 90.7265 21.3515C90.6098 21.2036 90.5705 21.0177 90.6085 20.7939C90.6383 20.6107 90.7157 20.4513 90.8405 20.3156C90.9668 20.1786 91.1263 20.0721 91.319 19.9961C91.5118 19.9188 91.7249 19.8801 91.9583 19.8801C92.299 19.8801 92.5549 19.9534 92.7259 20.0999C92.8969 20.2451 92.9946 20.4398 93.0191 20.684ZM94.6287 23.1099C94.3315 23.1099 94.083 23.0421 93.8835 22.9064C93.684 22.7693 93.5435 22.578 93.4621 22.3325C93.382 22.0855 93.3684 21.7986 93.4214 21.4716C93.4729 21.1514 93.5768 20.8719 93.7329 20.6331C93.8903 20.3943 94.0871 20.2091 94.3233 20.0775C94.5608 19.9459 94.8248 19.8801 95.1153 19.8801C95.4126 19.8801 95.6603 19.9486 95.8584 20.0856C96.058 20.2227 96.1984 20.4147 96.2799 20.6616C96.3613 20.9085 96.3755 21.1962 96.3226 21.5245C96.271 21.842 96.1659 22.1201 96.0071 22.3589C95.8496 22.5963 95.6528 22.7809 95.4166 22.9125C95.1804 23.0441 94.9178 23.1099 94.6287 23.1099ZM94.6633 22.599C94.8588 22.599 95.0291 22.5475 95.1743 22.4444C95.3209 22.3413 95.4404 22.2043 95.5327 22.0333C95.625 21.8623 95.6881 21.6751 95.722 21.4716C95.7532 21.2749 95.7525 21.0951 95.72 20.9323C95.6888 20.7681 95.6209 20.6365 95.5164 20.5374C95.4119 20.4384 95.2666 20.3889 95.0807 20.3889C94.8852 20.3889 94.7135 20.4411 94.5656 20.5456C94.419 20.6487 94.2995 20.7864 94.2072 20.9587C94.1163 21.1311 94.0545 21.3189 94.022 21.5225C93.9908 21.7179 93.9908 21.8976 94.022 22.0618C94.0532 22.2246 94.121 22.3549 94.2255 22.4525C94.3301 22.5502 94.476 22.599 94.6633 22.599ZM98.0259 23.1099C97.7287 23.1099 97.4803 23.0421 97.2808 22.9064C97.0812 22.7693 96.9407 22.578 96.8593 22.3325C96.7792 22.0855 96.7657 21.7986 96.8186 21.4716C96.8702 21.1514 96.974 20.8719 97.1301 20.6331C97.2875 20.3943 97.4843 20.2091 97.7205 20.0775C97.9581 19.9459 98.2221 19.8801 98.5125 19.8801C98.8098 19.8801 99.0575 19.9486 99.2556 20.0856C99.4552 20.2227 99.5957 20.4147 99.6771 20.6616C99.7585 20.9085 99.7728 21.1962 99.7198 21.5245C99.6683 21.842 99.5631 22.1201 99.4043 22.3589C99.2468 22.5963 99.05 22.7809 98.8139 22.9125C98.5777 23.0441 98.315 23.1099 98.0259 23.1099ZM98.0605 22.599C98.256 22.599 98.4263 22.5475 98.5716 22.4444C98.7181 22.3413 98.8376 22.2043 98.9299 22.0333C99.0222 21.8623 99.0853 21.6751 99.1192 21.4716C99.1504 21.2749 99.1498 21.0951 99.1172 20.9323C99.086 20.7681 99.0181 20.6365 98.9136 20.5374C98.8091 20.4384 98.6638 20.3889 98.4779 20.3889C98.2825 20.3889 98.1107 20.4411 97.9628 20.5456C97.8162 20.6487 97.6968 20.7864 97.6045 20.9587C97.5135 21.1311 97.4518 21.3189 97.4192 21.5225C97.388 21.7179 97.388 21.8976 97.4192 22.0618C97.4504 22.2246 97.5183 22.3549 97.6228 22.4525C97.7273 22.5502 97.8732 22.599 98.0605 22.599ZM101.008 21.1907L100.702 23.0468H100.094L100.615 19.9208H101.199L101.114 20.4296H101.152C101.251 20.2627 101.386 20.1298 101.557 20.0307C101.73 19.9303 101.933 19.8801 102.168 19.8801C102.38 19.8801 102.558 19.9249 102.702 20.0144C102.847 20.1026 102.949 20.2342 103.009 20.4092C103.07 20.5843 103.08 20.8007 103.038 21.0585L102.704 23.0468H102.095L102.415 21.1317C102.451 20.9051 102.421 20.7281 102.325 20.6005C102.23 20.4717 102.079 20.4072 101.871 20.4072C101.73 20.4072 101.599 20.4377 101.478 20.4988C101.359 20.5598 101.258 20.6494 101.175 20.7674C101.093 20.8841 101.038 21.0252 101.008 21.1907Z" fill="var(--fill-0, white)"/>
</g>
</g>
<defs>
<clipPath id="clip0_167_2039">
<rect width="43" height="14" fill="white" transform="translate(65 14)"/>
</clipPath>
</defs>
</svg>
