<svg preserveAspectRatio="none" width="100%" height="100%" overflow="visible" style="display: block;" viewBox="0 0 122 80" fill="none" xmlns="http://www.w3.org/2000/svg">
<g id="oura">
<path id="oura_2" d="M35.7086 32.5972H43.1289V31H35.7086V32.5972ZM69.6145 41.1534H64.4245V35.8452H69.6145C71.4637 35.8452 72.7062 36.9119 72.7062 38.4994C72.7062 40.0869 71.4637 41.1534 69.6145 41.1534ZM71.3336 42.395C73.114 41.8885 74.2644 40.3593 74.2644 38.4994C74.2644 36.0852 72.3957 34.4631 69.6144 34.4631H62.867V48.7312H64.4246V42.5571H69.7032L73.0645 48.731H74.7498L71.2456 42.42L71.3336 42.395ZM54.7786 49C58.5986 49 61.2664 46.323 61.2664 42.49V34.4632H59.6655V42.3823C59.6655 45.3383 57.6559 47.4029 54.7786 47.4029C52.3937 47.4029 49.8268 45.8318 49.8268 42.3823V34.4632H48.2261V42.49C48.2261 46.323 50.9206 48.9999 54.7787 48.9999M82.732 36.3245L86.1083 43.692H79.3341L82.732 36.3245ZM81.981 34.4633L75.4424 48.7312H77.1146L78.7316 45.0739H86.7105L88.328 48.7312H90L83.4615 34.4631L81.981 34.4633ZM39.4203 34.1944C35.3287 34.1944 32 37.5152 32 41.5971C32 45.6791 35.3287 48.9999 39.4203 48.9999C43.512 48.9999 46.8407 45.6791 46.8407 41.5971C46.8407 37.5152 43.512 34.1944 39.4203 34.1944ZM39.4203 47.4028C36.2114 47.4028 33.6008 44.7983 33.6008 41.5971C33.6008 38.3959 36.2115 35.7915 39.4203 35.7915C42.6292 35.7915 45.24 38.3959 45.24 41.5971C45.24 44.7983 42.6292 47.4028 39.4203 47.4028" fill="white"/>
<g id="coming_soon_label 3" clip-path="url(#clip0_79_678)">
<path id="Vector" d="M75.219 52.746H47.781C43.4837 52.746 40 55.88 40 59.746C40 63.612 43.4837 66.746 47.781 66.746H75.219C79.5163 66.746 83 63.612 83 59.746C83 55.88 79.5163 52.746 75.219 52.746Z" fill="var(--fill-0, #55FE5E)"/>
<path id="Vector_2" d="M45.3064 61.8558C45.0023 61.8558 44.7533 61.7873 44.5592 61.6503C44.3651 61.5119 44.23 61.3212 44.154 61.0784C44.078 60.8355 44.0658 60.5574 44.1174 60.244C44.1689 59.9265 44.2741 59.6463 44.4329 59.4035C44.5931 59.1593 44.7933 58.9686 45.0335 58.8316C45.2752 58.6946 45.5432 58.626 45.8378 58.626C46.0753 58.626 46.2796 58.6701 46.4506 58.7583C46.6216 58.8452 46.7513 58.9673 46.8395 59.1246C46.9277 59.282 46.9657 59.4659 46.9535 59.6762H46.361C46.3515 59.5297 46.2972 59.4035 46.1982 59.2976C46.099 59.1918 45.9531 59.1389 45.7604 59.1389C45.5907 59.1389 45.4346 59.1837 45.2921 59.2732C45.1496 59.3614 45.0295 59.4876 44.9317 59.6518C44.834 59.8146 44.7675 60.0072 44.7322 60.2297C44.6942 60.4577 44.6963 60.6544 44.7383 60.8199C44.7804 60.9854 44.8578 61.1137 44.9704 61.2046C45.0831 61.2955 45.2249 61.3409 45.396 61.3409C45.5127 61.3409 45.6213 61.3199 45.7217 61.2778C45.8235 61.2344 45.9131 61.1727 45.9905 61.0927C46.0692 61.0126 46.1303 60.9163 46.1737 60.8036H46.7682C46.7099 61.0058 46.6121 61.1863 46.475 61.345C46.3393 61.5037 46.1724 61.6286 45.9742 61.7195C45.776 61.8104 45.5534 61.8558 45.3064 61.8558ZM48.5245 61.8558C48.2272 61.8558 47.9788 61.788 47.7792 61.6523C47.5797 61.5153 47.4393 61.324 47.3578 61.0784C47.2777 60.8315 47.2641 60.5445 47.3171 60.2175C47.3687 59.8973 47.4725 59.6178 47.6286 59.379C47.786 59.1403 47.9829 58.955 48.219 58.8234C48.4566 58.6919 48.7206 58.626 49.011 58.626C49.3083 58.626 49.556 58.6946 49.7542 58.8316C49.9537 58.9686 50.0942 59.1606 50.1756 59.4075C50.2571 59.6545 50.2713 59.9421 50.2184 60.2704C50.1668 60.5879 50.0616 60.8661 49.9028 61.1049C49.7453 61.3423 49.5485 61.5268 49.3124 61.6584C49.0762 61.79 48.8135 61.8558 48.5245 61.8558ZM48.5591 61.345C48.7545 61.345 48.9248 61.2934 49.0701 61.1903C49.2167 61.0872 49.3361 60.9502 49.4284 60.7792C49.5207 60.6083 49.5838 60.421 49.6178 60.2175C49.649 60.0208 49.6483 59.841 49.6157 59.6782C49.5845 59.5141 49.5166 59.3824 49.4121 59.2834C49.3076 59.1844 49.1624 59.1348 48.9764 59.1348C48.781 59.1348 48.6093 59.1871 48.4613 59.2915C48.3147 59.3946 48.1953 59.5324 48.103 59.7046C48.0121 59.877 47.9503 60.0649 47.9177 60.2684C47.8865 60.4638 47.8865 60.6436 47.9177 60.8077C47.9489 60.9705 48.0168 61.1008 48.1213 61.1985C48.2258 61.2961 48.3717 61.345 48.5591 61.345ZM50.5921 61.7927L51.1134 58.6667H51.6977L51.6122 59.1755H51.6509C51.7459 59.0032 51.8748 58.8689 52.0377 58.7726C52.2019 58.6749 52.3879 58.626 52.5956 58.626C52.8019 58.626 52.9682 58.6749 53.0944 58.7726C53.222 58.8703 53.3054 59.0046 53.3448 59.1755H53.3774C53.4778 59.0073 53.6183 58.8737 53.7988 58.7746C53.9794 58.6756 54.1823 58.626 54.4076 58.626C54.6886 58.626 54.9044 58.7156 55.055 58.8947C55.2071 59.0724 55.2532 59.3397 55.1935 59.6965L54.8433 61.7927H54.2325L54.5746 59.7535C54.6085 59.5405 54.5759 59.3872 54.4768 59.2936C54.3777 59.1986 54.2481 59.1511 54.088 59.1511C53.8898 59.1511 53.7255 59.2122 53.5952 59.3343C53.4649 59.455 53.3848 59.6104 53.355 59.8003L53.0191 61.7927H52.4144L52.7625 59.7148C52.7897 59.5439 52.7584 59.4075 52.6689 59.3058C52.5806 59.2027 52.4517 59.1511 52.282 59.1511C52.1666 59.1511 52.0547 59.1816 51.9461 59.2427C51.8389 59.3037 51.7472 59.3878 51.6712 59.4951C51.5952 59.6022 51.5457 59.7257 51.5226 59.8654L51.2009 61.7927H50.5921ZM55.5998 61.7927L56.1211 58.6667H56.7298L56.2086 61.7927H55.5998ZM56.5527 58.1783C56.4468 58.1783 56.3573 58.143 56.2839 58.0725C56.212 58.0006 56.1787 57.9151 56.1842 57.816C56.1896 57.7156 56.2317 57.6302 56.3104 57.5596C56.3891 57.4877 56.4808 57.4518 56.5853 57.4518C56.6911 57.4518 56.78 57.4877 56.852 57.5596C56.9239 57.6302 56.9579 57.7156 56.9538 57.816C56.9484 57.9151 56.9063 58.0006 56.8275 58.0725C56.7502 58.143 56.6586 58.1783 56.5527 58.1783ZM57.8865 59.9367L57.581 61.7927H56.9723L57.4935 58.6667H58.0778L57.9923 59.1755H58.031C58.1301 59.0087 58.2651 58.8757 58.4362 58.7766C58.6085 58.6762 58.8121 58.626 59.047 58.626C59.2587 58.626 59.4365 58.6708 59.5804 58.7603C59.7256 58.8486 59.8281 58.9802 59.8878 59.1552C59.9489 59.3302 59.9584 59.5466 59.9163 59.8044L59.5824 61.7927H58.9737L59.2933 59.8776C59.3299 59.6511 59.3001 59.474 59.2037 59.3465C59.1087 59.2176 58.9574 59.1531 58.7497 59.1531C58.6085 59.1531 58.4776 59.1837 58.3568 59.2447C58.2373 59.3058 58.1362 59.3953 58.0534 59.5134C57.972 59.6301 57.9163 59.7712 57.8865 59.9367ZM61.4552 63.0301C61.2054 63.0301 60.9964 62.9976 60.8281 62.9324C60.6612 62.8673 60.5295 62.7811 60.4331 62.674C60.3381 62.5668 60.2723 62.4494 60.2356 62.3219L60.7976 62.1061C60.8247 62.1659 60.8627 62.2289 60.9116 62.2954C60.9605 62.3633 61.0331 62.4209 61.1294 62.4684C61.2272 62.5159 61.3609 62.5397 61.5305 62.5397C61.7613 62.5397 61.9629 62.4833 62.1352 62.3707C62.3076 62.2595 62.4141 62.0817 62.4549 61.8375L62.5506 61.2229H62.5119C62.4657 61.2894 62.4019 61.3633 62.3205 61.4447C62.239 61.5261 62.1339 61.5967 62.0049 61.6564C61.876 61.7161 61.7158 61.7459 61.5244 61.7459C61.2774 61.7459 61.0643 61.6883 60.8851 61.573C60.7073 61.4562 60.5797 61.2846 60.5024 61.0581C60.425 60.8301 60.4141 60.5499 60.4698 60.2175C60.5241 59.8851 60.6272 59.6002 60.7792 59.3628C60.9326 59.1253 61.1186 58.9435 61.3371 58.8173C61.557 58.6898 61.7925 58.626 62.0436 58.626C62.2377 58.626 62.389 58.6586 62.4976 58.7237C62.6076 58.7875 62.689 58.8621 62.7419 58.9476C62.7949 59.0331 62.8335 59.1084 62.858 59.1735H62.9028L62.9863 58.6667H63.5828L63.0535 61.8619C63.01 62.1306 62.9116 62.3511 62.7582 62.5234C62.6062 62.6957 62.4169 62.8232 62.1902 62.906C61.9649 62.9887 61.7199 63.0301 61.4552 63.0301ZM61.7321 61.2412C61.9058 61.2412 62.0606 61.2005 62.1963 61.1191C62.3334 61.0363 62.4474 60.9183 62.5384 60.765C62.6293 60.6103 62.6924 60.4251 62.7277 60.2094C62.763 59.9991 62.7609 59.8139 62.7216 59.6538C62.6836 59.4937 62.6096 59.3689 62.4997 59.2793C62.3911 59.1884 62.2492 59.143 62.0741 59.143C61.8895 59.143 61.7294 59.1905 61.5936 59.2854C61.4579 59.379 61.3473 59.5066 61.2618 59.6681C61.1776 59.8295 61.1186 60.0099 61.0846 60.2094C61.0521 60.4143 61.0528 60.594 61.0867 60.7487C61.122 60.9034 61.1925 61.0241 61.2984 61.111C61.4043 61.1978 61.5489 61.2412 61.7321 61.2412ZM68.0191 59.4299L67.451 59.5276C67.4388 59.4557 67.4137 59.3878 67.3757 59.3241C67.339 59.2603 67.2827 59.2088 67.2067 59.1694C67.1307 59.1287 67.0296 59.1084 66.9033 59.1084C66.7282 59.1084 66.5749 59.1484 66.4432 59.2284C66.3129 59.3085 66.2382 59.4102 66.2192 59.5337C66.2016 59.6341 66.2254 59.7155 66.2905 59.7779C66.3556 59.839 66.4704 59.8899 66.6346 59.9306L67.1151 60.0445C67.392 60.111 67.5902 60.2148 67.7096 60.3559C67.8304 60.4957 67.8725 60.6775 67.8358 60.9013C67.8046 61.0872 67.7232 61.2521 67.5915 61.3959C67.4612 61.5397 67.2942 61.6523 67.0907 61.7337C66.887 61.8151 66.6604 61.8558 66.4107 61.8558C66.055 61.8558 65.7781 61.7805 65.58 61.6299C65.3818 61.4793 65.28 61.2663 65.2745 60.9909L65.8772 60.9013C65.8881 61.0547 65.9431 61.1707 66.0421 61.2494C66.1426 61.3267 66.2817 61.3654 66.4595 61.3654C66.6631 61.3667 66.8334 61.324 66.9705 61.2372C67.1076 61.1503 67.1857 61.0452 67.2047 60.9217C67.221 60.8253 67.1992 60.7453 67.1395 60.6815C67.0812 60.6178 66.978 60.5689 66.83 60.535L66.3251 60.419C66.0428 60.3525 65.8433 60.2453 65.7265 60.0975C65.6098 59.9496 65.5705 59.7637 65.6085 59.5398C65.6383 59.3567 65.7157 59.1973 65.8406 59.0616C65.9668 58.9245 66.1263 58.818 66.319 58.742C66.5118 58.6647 66.7249 58.626 66.9583 58.626C67.299 58.626 67.5549 58.6993 67.7259 58.8458C67.8969 58.991 67.9946 59.1857 68.0191 59.4299ZM69.6287 61.8558C69.3315 61.8558 69.083 61.788 68.8835 61.6523C68.684 61.5153 68.5435 61.324 68.4621 61.0784C68.382 60.8315 68.3684 60.5445 68.4214 60.2175C68.4729 59.8973 68.5768 59.6178 68.7329 59.379C68.8903 59.1403 69.0871 58.955 69.3233 58.8234C69.5608 58.6919 69.8248 58.626 70.1153 58.626C70.4126 58.626 70.6603 58.6946 70.8584 58.8316C71.058 58.9686 71.1984 59.1606 71.2799 59.4075C71.3613 59.6545 71.3756 59.9421 71.3226 60.2704C71.271 60.5879 71.1659 60.8661 71.0071 61.1049C70.8496 61.3423 70.6528 61.5268 70.4166 61.6584C70.1804 61.79 69.9178 61.8558 69.6287 61.8558ZM69.6633 61.345C69.8588 61.345 70.0291 61.2934 70.1743 61.1903C70.3209 61.0872 70.4404 60.9502 70.5327 60.7792C70.625 60.6083 70.6881 60.421 70.722 60.2175C70.7532 60.0208 70.7525 59.841 70.72 59.6782C70.6888 59.5141 70.6209 59.3824 70.5164 59.2834C70.4119 59.1844 70.2666 59.1348 70.0807 59.1348C69.8852 59.1348 69.7135 59.1871 69.5656 59.2915C69.419 59.3946 69.2996 59.5324 69.2072 59.7046C69.1163 59.877 69.0545 60.0649 69.022 60.2684C68.9908 60.4638 68.9908 60.6436 69.022 60.8077C69.0532 60.9705 69.121 61.1008 69.2256 61.1985C69.3301 61.2961 69.476 61.345 69.6633 61.345ZM73.0259 61.8558C72.7287 61.8558 72.4803 61.788 72.2808 61.6523C72.0812 61.5153 71.9407 61.324 71.8593 61.0784C71.7792 60.8315 71.7657 60.5445 71.8186 60.2175C71.8702 59.8973 71.974 59.6178 72.1301 59.379C72.2875 59.1403 72.4843 58.955 72.7205 58.8234C72.9581 58.6919 73.2221 58.626 73.5125 58.626C73.8098 58.626 74.0575 58.6946 74.2557 58.8316C74.4552 58.9686 74.5957 59.1606 74.6771 59.4075C74.7585 59.6545 74.7728 59.9421 74.7198 60.2704C74.6683 60.5879 74.5631 60.8661 74.4043 61.1049C74.2468 61.3423 74.05 61.5268 73.8139 61.6584C73.5777 61.79 73.315 61.8558 73.0259 61.8558ZM73.0605 61.345C73.256 61.345 73.4263 61.2934 73.5716 61.1903C73.7182 61.0872 73.8376 60.9502 73.9299 60.7792C74.0222 60.6083 74.0853 60.421 74.1192 60.2175C74.1504 60.0208 74.1498 59.841 74.1172 59.6782C74.086 59.5141 74.0181 59.3824 73.9136 59.2834C73.8091 59.1844 73.6639 59.1348 73.4779 59.1348C73.2825 59.1348 73.1107 59.1871 72.9628 59.2915C72.8162 59.3946 72.6968 59.5324 72.6045 59.7046C72.5135 59.877 72.4518 60.0649 72.4192 60.2684C72.388 60.4638 72.388 60.6436 72.4192 60.8077C72.4504 60.9705 72.5183 61.1008 72.6228 61.1985C72.7273 61.2961 72.8732 61.345 73.0605 61.345ZM76.0078 59.9367L75.7024 61.7927H75.0937L75.6149 58.6667H76.1992L76.1137 59.1755H76.1524C76.2514 59.0087 76.3865 58.8757 76.5575 58.7766C76.7299 58.6762 76.9335 58.626 77.1683 58.626C77.3801 58.626 77.5579 58.6708 77.7018 58.7603C77.847 58.8486 77.9495 58.9802 78.0092 59.1552C78.0702 59.3302 78.0797 59.5466 78.0377 59.8044L77.7038 61.7927H77.095L77.4147 59.8776C77.4513 59.6511 77.4215 59.474 77.3251 59.3465C77.2301 59.2176 77.0787 59.1531 76.8711 59.1531C76.7299 59.1531 76.5989 59.1837 76.4781 59.2447C76.3587 59.3058 76.2576 59.3953 76.1748 59.5134C76.0933 59.6301 76.0377 59.7712 76.0078 59.9367Z" fill="white"/>
</g>
</g>
<defs>
<clipPath id="clip0_79_678">
<rect width="43" height="14" fill="white" transform="translate(40 52.746)"/>
</clipPath>
</defs>
</svg>
