<svg preserveAspectRatio="none" width="100%" height="100%" overflow="visible" style="display: block;" viewBox="0 0 142 80" fill="none" xmlns="http://www.w3.org/2000/svg">
<g id="Frame 14">
<g id="amazfit">
<path d="M44.2758 48.7501H41.3727V47.4811C40.9209 47.981 40.3825 48.3559 39.7577 48.6155C39.1329 48.875 38.4503 49 37.7294 49C37.0084 49 36.2009 48.8366 35.4991 48.5097C34.807 48.1829 34.1918 47.7407 33.6823 47.1735C33.1632 46.6063 32.7498 45.9526 32.4518 45.2028C32.1538 44.4529 32 43.6454 32 42.7802C32 41.915 32.1538 41.0979 32.4518 40.3384C32.7498 39.5694 33.1728 38.9061 33.7207 38.3485C34.2591 37.7813 34.9127 37.3391 35.6626 37.0026C36.4124 36.6662 37.2487 36.5027 38.1523 36.5027C39.056 36.5027 39.8731 36.6662 40.6229 37.0026C41.3727 37.3391 42.0168 37.7813 42.5647 38.3485C43.103 38.9157 43.526 39.579 43.8336 40.3384C44.1316 41.1075 44.2854 41.915 44.2854 42.7802V48.7308L44.2758 48.7501ZM41.2189 42.7994C41.2189 42.3188 41.142 41.8766 40.9786 41.4536C40.8151 41.0402 40.594 40.6749 40.3153 40.3673C40.0365 40.0597 39.7096 39.8193 39.3347 39.6367C38.9598 39.4636 38.5657 39.3675 38.1427 39.3675C37.7197 39.3675 37.3256 39.454 36.9507 39.6174C36.5758 39.7905 36.249 40.0308 35.9702 40.3384C35.6914 40.6461 35.4703 41.0114 35.3069 41.4247C35.1435 41.8381 35.0666 42.2995 35.0666 42.7898C35.0666 43.2801 35.1435 43.7127 35.3069 44.1165C35.4703 44.5298 35.6914 44.8759 35.9702 45.1835C36.249 45.4815 36.5758 45.7219 36.9507 45.8853C37.3256 46.0583 37.7197 46.1352 38.1427 46.1352C38.5657 46.1352 38.9598 46.0487 39.3347 45.8661C39.7096 45.693 40.0365 45.4527 40.3153 45.1451C40.594 44.8471 40.8151 44.4914 40.9786 44.078C41.142 43.6742 41.2189 43.232 41.2189 42.7706V42.7994Z" fill="var(--fill-0, white)"/>
<path d="M64.7323 48.7501H61.6658V41.7612C61.6658 41.5882 61.6465 41.3767 61.5985 41.1267C61.5504 40.8672 61.4543 40.6172 61.3005 40.3769C61.1467 40.127 60.9256 39.9251 60.6276 39.752C60.3296 39.579 59.9354 39.4925 59.4163 39.4925C58.8972 39.4925 58.1762 39.704 57.7437 40.1173C57.3111 40.5307 57.09 41.0883 57.09 41.7612V48.7501H54.0234V41.7612C54.0234 41.5882 54.0042 41.3767 53.9561 41.1267C53.9081 40.8672 53.8119 40.6172 53.6677 40.3769C53.5235 40.127 53.3024 39.9251 53.0044 39.752C52.7064 39.579 52.3123 39.4925 51.7932 39.4925C51.2741 39.4925 50.5339 39.704 50.1109 40.1173C49.6879 40.5307 49.4765 41.0883 49.4765 41.7612V48.7501H46.4099V41.8381C46.4099 41.0787 46.5349 40.3769 46.7944 39.7232C47.054 39.0695 47.4097 38.5119 47.8711 38.0313C48.3325 37.5506 48.8997 37.1757 49.563 36.9065C50.2263 36.6373 50.9665 36.5027 51.7932 36.5027C52.6199 36.5027 53.3409 36.6566 53.985 36.9546C54.629 37.2526 55.1674 37.666 55.5999 38.1947C56.0518 37.666 56.5997 37.2526 57.2438 36.9546C57.8975 36.6566 58.6088 36.5027 59.4067 36.5027C60.2046 36.5027 60.9928 36.6373 61.6465 36.8969C62.3002 37.1565 62.8578 37.5314 63.3192 38.0024C63.771 38.4735 64.1267 39.031 64.367 39.6847C64.6073 40.3384 64.7227 41.0498 64.7227 41.8477V48.7597L64.7323 48.7501Z" fill="var(--fill-0, white)"/>
<path d="M78.5751 48.7501H75.6719V47.4811C75.2201 47.981 74.6818 48.3559 74.0569 48.6155C73.4321 48.875 72.7496 49 72.0286 49C71.3076 49 70.5001 48.8366 69.7984 48.5097C69.1062 48.1829 68.491 47.7407 67.9815 47.1735C67.4624 46.6063 67.0491 45.9526 66.751 45.2028C66.453 44.4529 66.2992 43.6454 66.2992 42.7802C66.2992 41.915 66.453 41.0979 66.751 40.3384C67.0491 39.5694 67.472 38.9061 68.02 38.3485C68.5583 37.7813 69.212 37.3391 69.9618 37.0026C70.7116 36.6662 71.5479 36.5027 72.4516 36.5027C73.3552 36.5027 74.1723 36.6662 74.9221 37.0026C75.6719 37.3391 76.316 37.7813 76.8639 38.3485C77.4023 38.9157 77.8252 39.579 78.1329 40.3384C78.4309 41.1075 78.5847 41.915 78.5847 42.7802V48.7308L78.5751 48.7501ZM75.5085 42.7994C75.5085 42.3188 75.4316 41.8766 75.2682 41.4536C75.1048 41.0402 74.8837 40.6749 74.6049 40.3673C74.3261 40.0597 73.9993 39.8193 73.6244 39.6367C73.2494 39.4636 72.8553 39.3675 72.4323 39.3675C72.0094 39.3675 71.6152 39.454 71.2403 39.6174C70.8654 39.7905 70.5386 40.0308 70.2598 40.3384C69.981 40.6461 69.7599 41.0114 69.5965 41.4247C69.4331 41.8381 69.3562 42.2995 69.3562 42.7898C69.3562 43.2801 69.4331 43.7127 69.5965 44.1165C69.7599 44.5298 69.981 44.8759 70.2598 45.1835C70.5386 45.4815 70.8654 45.7219 71.2403 45.8853C71.6152 46.0583 72.0094 46.1352 72.4323 46.1352C72.8553 46.1352 73.2494 46.0487 73.6244 45.8661C73.9993 45.693 74.3261 45.4527 74.6049 45.1451C74.8837 44.8471 75.1048 44.4914 75.2682 44.078C75.4316 43.6742 75.5085 43.232 75.5085 42.7706V42.7994Z" fill="var(--fill-0, white)"/>
<path d="M90.6394 48.7501H80.1997V46.1064L86.5154 39.5598H80.4592V36.8008H90.4375V39.5405L84.2371 45.991H90.6394V48.7501Z" fill="var(--fill-0, white)"/>
<path d="M97.0705 36.82H95.2536V36.0317C95.2729 35.1953 95.4651 34.5993 95.8496 34.2436C96.2245 33.8879 96.8013 33.7341 97.5511 33.7822V31.0424C96.686 30.9463 95.9169 31.0136 95.2536 31.2443C94.5903 31.4654 94.0232 31.8115 93.5714 32.2729C93.1195 32.7343 92.7735 33.3015 92.5428 33.9745C92.312 34.6474 92.1967 35.378 92.1967 36.1663V48.7404H95.2632V39.7616H97.0801V36.8104L97.0705 36.82Z" fill="var(--fill-0, white)"/>
<path d="M109.99 48.8558C109.106 48.9519 108.337 48.8943 107.674 48.6924C107.01 48.4905 106.453 48.1636 106.001 47.7214C105.549 47.2696 105.213 46.7217 104.982 46.0583C104.751 45.4046 104.636 44.6644 104.636 43.8377V33.7534H107.702V36.7911H109.856V39.5021H107.702V43.8569C107.702 44.6933 107.895 45.2797 108.27 45.6161C108.645 45.9526 109.221 46.1064 110 46.0583V48.8462L109.99 48.8558Z" fill="var(--fill-0, white)"/>
<path d="M102.367 36.8008H99.2334V48.7501H102.367V36.8008Z" fill="var(--fill-0, white)"/>
</g>
<g id="coming_soon_label 1" clip-path="url(#clip0_167_2045)">
<path id="Vector" d="M85.219 16H57.7809C53.4836 16 49.9999 19.134 49.9999 23C49.9999 26.866 53.4836 30 57.7809 30H85.219C89.5163 30 92.9999 26.866 92.9999 23C92.9999 19.134 89.5163 16 85.219 16Z" fill="var(--fill-0, #2B2B2B)"/>
<path id="Vector_2" d="M55.3063 25.1098C55.0023 25.1098 54.7532 25.0413 54.5591 24.9043C54.365 24.7659 54.23 24.5752 54.1539 24.3324C54.0779 24.0895 54.0657 23.8114 54.1173 23.498C54.1689 23.1805 54.2741 22.9003 54.4329 22.6575C54.593 22.4133 54.7933 22.2226 55.0335 22.0856C55.2751 21.9486 55.5432 21.88 55.8377 21.88C56.0752 21.88 56.2795 21.9241 56.4505 22.0123C56.6216 22.0992 56.7512 22.2213 56.8394 22.3786C56.9276 22.536 56.9657 22.7199 56.9534 22.9302H56.361C56.3515 22.7837 56.2971 22.6575 56.1981 22.5516C56.099 22.4458 55.9531 22.3929 55.7603 22.3929C55.5907 22.3929 55.4346 22.4377 55.2921 22.5272C55.1495 22.6154 55.0294 22.7416 54.9317 22.9058C54.834 23.0686 54.7675 23.2613 54.7322 23.4837C54.6941 23.7117 54.6962 23.9084 54.7383 24.074C54.7804 24.2395 54.8577 24.3677 54.9704 24.4586C55.083 24.5495 55.2249 24.5949 55.3959 24.5949C55.5126 24.5949 55.6212 24.5739 55.7216 24.5319C55.8235 24.4884 55.913 24.4267 55.9904 24.3467C56.0691 24.2666 56.1302 24.1703 56.1736 24.0577H56.7681C56.7098 24.2598 56.6121 24.4403 56.475 24.599C56.3392 24.7577 56.1723 24.8826 55.9741 24.9735C55.7759 25.0644 55.5533 25.1098 55.3063 25.1098ZM58.5244 25.1098C58.2271 25.1098 57.9787 25.042 57.7792 24.9063C57.5797 24.7693 57.4392 24.578 57.3577 24.3324C57.2777 24.0855 57.2641 23.7985 57.317 23.4715C57.3686 23.1513 57.4724 22.8718 57.6286 22.6331C57.786 22.3943 57.9828 22.209 58.219 22.0774C58.4565 21.9459 58.7205 21.88 59.011 21.88C59.3082 21.88 59.5559 21.9486 59.7541 22.0856C59.9536 22.2226 60.0941 22.4146 60.1755 22.6615C60.257 22.9085 60.2712 23.1961 60.2183 23.5244C60.1667 23.8419 60.0615 24.1201 59.9027 24.3589C59.7453 24.5963 59.5485 24.7808 59.3123 24.9124C59.0761 25.044 58.8135 25.1098 58.5244 25.1098ZM58.559 24.599C58.7544 24.599 58.9248 24.5475 59.07 24.4443C59.2166 24.3412 59.3361 24.2042 59.4283 24.0332C59.5206 23.8623 59.5837 23.675 59.6177 23.4715C59.6489 23.2748 59.6482 23.095 59.6156 22.9322C59.5844 22.7681 59.5166 22.6365 59.4121 22.5374C59.3076 22.4384 59.1623 22.3888 58.9763 22.3888C58.7809 22.3888 58.6092 22.4411 58.4612 22.5455C58.3147 22.6487 58.1952 22.7864 58.1029 22.9587C58.012 23.131 57.9502 23.3189 57.9176 23.5224C57.8864 23.7178 57.8864 23.8976 57.9176 24.0618C57.9488 24.2246 58.0167 24.3548 58.1212 24.4525C58.2258 24.5502 58.3717 24.599 58.559 24.599ZM60.5921 25.0467L61.1133 21.9207H61.6976L61.6121 22.4295H61.6508C61.7458 22.2572 61.8748 22.1229 62.0376 22.0266C62.2019 21.9289 62.3878 21.88 62.5955 21.88C62.8018 21.88 62.9681 21.9289 63.0943 22.0266C63.2219 22.1243 63.3054 22.2586 63.3447 22.4295H63.3773C63.4777 22.2613 63.6182 22.1277 63.7988 22.0286C63.9793 21.9296 64.1822 21.88 64.4075 21.88C64.6885 21.88 64.9043 21.9696 65.055 22.1487C65.207 22.3264 65.2531 22.5937 65.1934 22.9506L64.8432 25.0467H64.2324L64.5745 23.0075C64.6084 22.7945 64.5758 22.6412 64.4767 22.5476C64.3777 22.4526 64.2481 22.4051 64.0879 22.4051C63.8897 22.4051 63.7255 22.4662 63.5951 22.5883C63.4649 22.709 63.3848 22.8644 63.3549 23.0543L63.019 25.0467H62.4143L62.7625 22.9689C62.7896 22.7979 62.7584 22.6615 62.6688 22.5598C62.5806 22.4567 62.4516 22.4051 62.282 22.4051C62.1666 22.4051 62.0546 22.4356 61.946 22.4967C61.8388 22.5577 61.7472 22.6419 61.6712 22.7491C61.5952 22.8562 61.5456 22.9797 61.5225 23.1195L61.2009 25.0467H60.5921ZM65.5998 25.0467L66.121 21.9207H66.7298L66.2085 25.0467H65.5998ZM66.5526 21.4323C66.4467 21.4323 66.3572 21.397 66.2839 21.3265C66.2119 21.2546 66.1787 21.1691 66.1841 21.0701C66.1895 20.9696 66.2316 20.8842 66.3103 20.8136C66.389 20.7417 66.4807 20.7058 66.5852 20.7058C66.6911 20.7058 66.78 20.7417 66.8519 20.8136C66.9238 20.8842 66.9578 20.9696 66.9537 21.0701C66.9483 21.1691 66.9062 21.2546 66.8275 21.3265C66.7501 21.397 66.6585 21.4323 66.5526 21.4323ZM67.8864 23.1907L67.581 25.0467H66.9722L67.4934 21.9207H68.0778L67.9922 22.4295H68.0309C68.13 22.2627 68.2651 22.1297 68.4361 22.0306C68.6085 21.9302 68.8121 21.88 69.0469 21.88C69.2586 21.88 69.4364 21.9248 69.5803 22.0144C69.7256 22.1026 69.828 22.2342 69.8877 22.4092C69.9488 22.5842 69.9583 22.8006 69.9162 23.0584L69.5823 25.0467H68.9736L69.2932 23.1317C69.3299 22.9051 69.3 22.728 69.2037 22.6005C69.1086 22.4716 68.9573 22.4071 68.7496 22.4071C68.6085 22.4071 68.4775 22.4377 68.3567 22.4987C68.2372 22.5598 68.1361 22.6493 68.0533 22.7674C67.9719 22.8841 67.9162 23.0252 67.8864 23.1907ZM71.4551 26.2841C71.2054 26.2841 70.9963 26.2516 70.828 26.1864C70.6611 26.1213 70.5295 26.0351 70.433 25.928C70.338 25.8208 70.2722 25.7034 70.2356 25.5759L70.7975 25.3602C70.8246 25.4199 70.8626 25.483 70.9115 25.5494C70.9604 25.6173 71.033 25.6749 71.1294 25.7224C71.2271 25.7699 71.3608 25.7937 71.5304 25.7937C71.7612 25.7937 71.9628 25.7373 72.1352 25.6247C72.3075 25.5135 72.4141 25.3358 72.4548 25.0915L72.5505 24.4769H72.5118C72.4656 24.5434 72.4019 24.6173 72.3204 24.6988C72.239 24.7801 72.1338 24.8507 72.0048 24.9104C71.8759 24.9701 71.7157 25 71.5243 25C71.2773 25 71.0642 24.9423 70.885 24.827C70.7072 24.7103 70.5797 24.5387 70.5023 24.3121C70.4249 24.0841 70.414 23.8039 70.4697 23.4715C70.524 23.1391 70.6272 22.8542 70.7792 22.6168C70.9325 22.3793 71.1185 22.1975 71.337 22.0713C71.5569 21.9438 71.7924 21.88 72.0435 21.88C72.2376 21.88 72.389 21.9126 72.4975 21.9777C72.6075 22.0415 72.689 22.1161 72.7419 22.2016C72.7948 22.2871 72.8335 22.3624 72.8579 22.4275H72.9027L72.9862 21.9207H73.5827L73.0534 25.1159C73.0099 25.3846 72.9115 25.6051 72.7582 25.7774C72.6061 25.9497 72.4168 26.0772 72.1901 26.16C71.9648 26.2427 71.7198 26.2841 71.4551 26.2841ZM71.732 24.4952C71.9057 24.4952 72.0605 24.4545 72.1962 24.3731C72.3333 24.2903 72.4473 24.1723 72.5383 24.019C72.6292 23.8643 72.6923 23.6791 72.7276 23.4634C72.7629 23.2531 72.7609 23.0679 72.7215 22.9078C72.6835 22.7477 72.6095 22.6229 72.4996 22.5333C72.391 22.4424 72.2492 22.397 72.0741 22.397C71.8895 22.397 71.7293 22.4445 71.5936 22.5394C71.4578 22.6331 71.3472 22.7606 71.2617 22.9221C71.1776 23.0835 71.1185 23.264 71.0846 23.4634C71.052 23.6683 71.0527 23.848 71.0866 24.0027C71.1219 24.1574 71.1925 24.2781 71.2984 24.365C71.4042 24.4518 71.5488 24.4952 71.732 24.4952ZM78.019 22.6839L77.451 22.7816C77.4387 22.7097 77.4136 22.6419 77.3756 22.5781C77.339 22.5143 77.2827 22.4628 77.2067 22.4234C77.1306 22.3827 77.0295 22.3624 76.9033 22.3624C76.7282 22.3624 76.5748 22.4024 76.4431 22.4825C76.3128 22.5625 76.2382 22.6643 76.2192 22.7877C76.2016 22.8881 76.2253 22.9695 76.2905 23.0319C76.3556 23.093 76.4703 23.1439 76.6345 23.1846L77.115 23.2985C77.3919 23.365 77.5901 23.4688 77.7095 23.6099C77.8303 23.7497 77.8724 23.9315 77.8358 24.1553C77.8046 24.3412 77.7231 24.5061 77.5914 24.6499C77.4611 24.7937 77.2942 24.9063 77.0906 24.9877C76.887 25.0691 76.6603 25.1098 76.4106 25.1098C76.055 25.1098 75.7781 25.0345 75.5799 24.8839C75.3817 24.7333 75.2799 24.5203 75.2745 24.2449L75.8771 24.1553C75.888 24.3087 75.943 24.4247 76.0421 24.5034C76.1425 24.5807 76.2816 24.6194 76.4594 24.6194C76.6631 24.6207 76.8334 24.578 76.9705 24.4912C77.1075 24.4043 77.1856 24.2992 77.2046 24.1757C77.2209 24.0794 77.1992 23.9993 77.1395 23.9355C77.0811 23.8718 76.9779 23.8229 76.83 23.789L76.3251 23.673C76.0427 23.6065 75.8432 23.4993 75.7265 23.3515C75.6098 23.2036 75.5704 23.0177 75.6084 22.7938C75.6383 22.6107 75.7156 22.4513 75.8405 22.3156C75.9667 22.1785 76.1262 22.072 76.319 21.9961C76.5117 21.9187 76.7248 21.88 76.9582 21.88C77.2989 21.88 77.5548 21.9533 77.7258 22.0998C77.8968 22.245 77.9946 22.4397 78.019 22.6839ZM79.6286 25.1098C79.3314 25.1098 79.083 25.042 78.8834 24.9063C78.6839 24.7693 78.5435 24.578 78.462 24.3324C78.3819 24.0855 78.3684 23.7985 78.4213 23.4715C78.4729 23.1513 78.5767 22.8718 78.7328 22.6331C78.8902 22.3943 79.0871 22.209 79.3232 22.0774C79.5608 21.9459 79.8248 21.88 80.1152 21.88C80.4125 21.88 80.6602 21.9486 80.8584 22.0856C81.0579 22.2226 81.1984 22.4146 81.2798 22.6615C81.3612 22.9085 81.3755 23.1961 81.3226 23.5244C81.271 23.8419 81.1658 24.1201 81.007 24.3589C80.8495 24.5963 80.6527 24.7808 80.4165 24.9124C80.1804 25.044 79.9177 25.1098 79.6286 25.1098ZM79.6632 24.599C79.8587 24.599 80.0291 24.5475 80.1743 24.4443C80.3209 24.3412 80.4403 24.2042 80.5326 24.0332C80.6249 23.8623 80.688 23.675 80.722 23.4715C80.7532 23.2748 80.7525 23.095 80.7199 22.9322C80.6887 22.7681 80.6208 22.6365 80.5163 22.5374C80.4118 22.4384 80.2666 22.3888 80.0806 22.3888C79.8851 22.3888 79.7135 22.4411 79.5655 22.5455C79.4189 22.6487 79.2995 22.7864 79.2072 22.9587C79.1162 23.131 79.0545 23.3189 79.0219 23.5224C78.9907 23.7178 78.9907 23.8976 79.0219 24.0618C79.0531 24.2246 79.121 24.3548 79.2255 24.4525C79.33 24.5502 79.4759 24.599 79.6632 24.599ZM83.0259 25.1098C82.7286 25.1098 82.4802 25.042 82.2807 24.9063C82.0812 24.7693 81.9407 24.578 81.8592 24.3324C81.7792 24.0855 81.7656 23.7985 81.8185 23.4715C81.8701 23.1513 81.9739 22.8718 82.13 22.6331C82.2875 22.3943 82.4843 22.209 82.7204 22.0774C82.958 21.9459 83.222 21.88 83.5125 21.88C83.8097 21.88 84.0574 21.9486 84.2556 22.0856C84.4551 22.2226 84.5956 22.4146 84.677 22.6615C84.7585 22.9085 84.7727 23.1961 84.7198 23.5244C84.6682 23.8419 84.563 24.1201 84.4042 24.3589C84.2468 24.5963 84.05 24.7808 83.8138 24.9124C83.5776 25.044 83.3149 25.1098 83.0259 25.1098ZM83.0605 24.599C83.2559 24.599 83.4263 24.5475 83.5715 24.4443C83.7181 24.3412 83.8375 24.2042 83.9298 24.0332C84.0221 23.8623 84.0853 23.675 84.1192 23.4715C84.1504 23.2748 84.1497 23.095 84.1171 22.9322C84.0859 22.7681 84.0181 22.6365 83.9135 22.5374C83.809 22.4384 83.6638 22.3888 83.4779 22.3888C83.2824 22.3888 83.1107 22.4411 82.9628 22.5455C82.8161 22.6487 82.6967 22.7864 82.6044 22.9587C82.5135 23.131 82.4517 23.3189 82.4191 23.5224C82.3879 23.7178 82.3879 23.8976 82.4191 24.0618C82.4504 24.2246 82.5182 24.3548 82.6227 24.4525C82.7272 24.5502 82.8732 24.599 83.0605 24.599ZM86.0077 23.1907L85.7024 25.0467H85.0936L85.6148 21.9207H86.1991L86.1136 22.4295H86.1523C86.2514 22.2627 86.3864 22.1297 86.5574 22.0306C86.7298 21.9302 86.9334 21.88 87.1682 21.88C87.38 21.88 87.5578 21.9248 87.7017 22.0144C87.8469 22.1026 87.9494 22.2342 88.0091 22.4092C88.0702 22.5842 88.0797 22.8006 88.0376 23.0584L87.7037 25.0467H87.0949L87.4146 23.1317C87.4513 22.9051 87.4214 22.728 87.325 22.6005C87.23 22.4716 87.0787 22.4071 86.871 22.4071C86.7298 22.4071 86.5988 22.4377 86.4781 22.4987C86.3586 22.5598 86.2575 22.6493 86.1747 22.7674C86.0932 22.8841 86.0376 23.0252 86.0077 23.1907Z" fill="var(--fill-0, white)"/>
</g>
</g>
<defs>
<clipPath id="clip0_167_2045">
<rect width="43" height="14" fill="white" transform="translate(49.9999 16)"/>
</clipPath>
</defs>
</svg>
