<svg width="32" height="223" viewBox="0 0 32 223" fill="none" xmlns="http://www.w3.org/2000/svg">
<rect x="11" y="185" width="10" height="38" fill="url(#paint0_linear_184_3756)" fill-opacity="0.3"/>
<rect x="11" y="23" width="10" height="142" fill="#50DBFF" fill-opacity="0.3"/>
<g clip-path="url(#clip0_184_3756)">
<path d="M16 113C24.8366 113 32 105.837 32 97C32 88.1634 24.8366 81 16 81C7.16344 81 0 88.1634 0 97C0 105.837 7.16344 113 16 113Z" fill="#50DBFF"/>
<path d="M9.90469 99.2083L9.5748 99.528C9.47377 99.626 9.42319 99.6752 9.38293 99.7295C9.30683 99.8323 9.25643 99.9505 9.2353 100.075C9.22412 100.141 9.22412 100.211 9.22412 100.349C9.22412 100.666 9.22412 100.824 9.26854 100.952C9.35307 101.195 9.55002 101.385 9.8006 101.467C9.93179 101.51 10.0939 101.51 10.4179 101.51H13.4588H18.5404H21.5814C21.9054 101.51 22.0681 101.51 22.1993 101.467C22.4499 101.385 22.6459 101.195 22.7305 100.952C22.7749 100.824 22.7749 100.666 22.7749 100.349C22.7749 100.211 22.7748 100.141 22.7636 100.075C22.7424 99.9505 22.6924 99.8323 22.6164 99.7295C22.5761 99.6752 22.5251 99.6257 22.4244 99.528L22.0944 99.2083C21.9879 99.105 21.9281 98.9651 21.9281 98.8191V95.7628C21.9281 92.5887 19.2739 90.0156 15.9996 90.0156C12.7254 90.0156 10.0711 92.5887 10.0711 95.7628V98.8191C10.0711 98.9651 10.0111 99.105 9.90469 99.2083Z" fill="black"/>
<path d="M14.3057 102.331C14.3057 103.238 15.0641 103.973 15.9996 103.973C16.9351 103.973 17.6935 103.238 17.6935 102.331H14.3057ZM10.3928 88.5499C10.7664 88.277 11.2973 88.3497 11.5788 88.7119C11.8603 89.074 11.7861 89.5887 11.4126 89.8616C10.3613 90.6296 9.53273 91.6482 9.00825 92.8187C8.82187 93.2346 8.32318 93.4251 7.89416 93.2444C7.46521 93.0637 7.26862 92.5803 7.45497 92.1644C8.09599 90.7339 9.10794 89.4885 10.3928 88.5499ZM20.4204 88.7119C20.7018 88.3498 21.2329 88.2772 21.6064 88.5499C22.8913 89.4885 23.904 90.7338 24.5451 92.1644C24.7314 92.5802 24.5346 93.0636 24.1058 93.2444C23.6769 93.4251 23.1774 93.2346 22.991 92.8187C22.4666 91.6484 21.6386 90.6296 20.5874 89.8616C20.214 89.5888 20.1391 89.074 20.4204 88.7119ZM10.918 98.8194C10.9179 99.1834 10.7684 99.532 10.5036 99.7887L10.1736 100.109C10.1201 100.161 10.0933 100.187 10.0744 100.206L10.0719 100.209V100.211C10.071 100.238 10.0711 100.275 10.0711 100.349C10.0711 100.517 10.0713 100.608 10.0752 100.675C10.0754 100.678 10.0758 100.681 10.076 100.684C10.0788 100.684 10.0819 100.685 10.0851 100.685C10.1529 100.689 10.2464 100.689 10.4176 100.689H21.5817C21.753 100.689 21.8469 100.689 21.915 100.685C21.9175 100.685 21.9223 100.684 21.9223 100.684C21.9226 100.681 21.9238 100.678 21.9241 100.675C21.9279 100.608 21.9281 100.517 21.9281 100.349C21.9281 100.276 21.9274 100.239 21.9265 100.212V100.208C21.9073 100.188 21.8795 100.161 21.8256 100.109L21.4956 99.7887C21.2304 99.5316 21.0814 99.1829 21.0812 98.8194V95.7629C21.0812 93.0422 18.8062 90.8366 15.9996 90.8366C13.1931 90.8366 10.918 93.0422 10.918 95.7629V98.8194ZM22.7751 98.7071L23.0233 98.9476C23.1042 99.0261 23.2146 99.1294 23.3045 99.2507C23.4196 99.4062 23.5047 99.5784 23.5575 99.759L23.5989 99.9427L23.6129 100.052C23.6228 100.16 23.622 100.264 23.622 100.349C23.622 100.599 23.6327 100.927 23.5327 101.214C23.3641 101.699 22.9721 102.081 22.4699 102.245C22.248 102.318 22.0031 102.33 21.7867 102.331H19.3873C19.3873 104.145 17.8706 105.615 15.9996 105.615C14.1286 105.615 12.6118 104.145 12.6118 102.331H10.2125C9.9963 102.33 9.75196 102.318 9.53013 102.245C9.02929 102.082 8.63483 101.7 8.46567 101.214C8.36563 100.927 8.37717 100.599 8.37717 100.349C8.37717 100.237 8.3746 100.09 8.39951 99.9427C8.44166 99.6937 8.5423 99.4566 8.69477 99.2507C8.78446 99.1296 8.89355 99.0276 8.97599 98.9476L9.22411 98.7071V95.7629C9.22411 92.1353 12.2576 89.1945 15.9996 89.1945C19.7417 89.1945 22.7751 92.1353 22.7751 95.7629V98.7071Z" fill="black"/>
</g>
<g clip-path="url(#clip1_184_3756)">
<path d="M16 194C24.8366 194 32 186.837 32 178C32 169.163 24.8366 162 16 162C7.16344 162 0 169.163 0 178C0 186.837 7.16344 194 16 194Z" fill="#50DBFF"/>
<path d="M16.0001 170.115L18.3329 175.031L23.8639 175.669L19.7746 179.344L20.8602 184.654L16.0001 182.01L11.14 184.654L12.2255 179.344L8.13632 175.669L13.6672 175.031L16.0001 170.115Z" fill="black"/>
<path d="M16.0002 169.385C16.2934 169.385 16.5601 169.55 16.6829 169.809L18.8389 174.354L23.9524 174.943C24.2436 174.976 24.4879 175.172 24.5786 175.443C24.669 175.714 24.5897 176.011 24.3745 176.205L20.5933 179.603L21.5975 184.512C21.6546 184.791 21.5389 185.078 21.3017 185.245C21.0645 185.413 20.7485 185.431 20.4928 185.291L15.9995 182.846L11.5071 185.291C11.2512 185.431 10.9354 185.413 10.6982 185.245C10.461 185.078 10.3459 184.791 10.4031 184.512L11.4058 179.603L7.62614 176.205C7.41087 176.012 7.3308 175.714 7.42134 175.443C7.51192 175.172 7.7564 174.977 8.04749 174.943L13.161 174.354L15.3177 169.809L15.3697 169.716C15.5071 169.511 15.7437 169.385 16.0002 169.385ZM14.3501 175.337C14.2406 175.568 14.0151 175.727 13.7556 175.757L9.843 176.207L12.7359 178.808C12.9277 178.98 13.0137 179.237 12.9627 179.486L12.1942 183.242L15.6332 181.372L15.7206 181.332C15.9297 181.25 16.1677 181.264 16.3674 181.372L19.8049 183.242L19.0372 179.486C18.9863 179.237 19.0729 178.98 19.2646 178.808L22.1562 176.207L18.2443 175.757C17.9849 175.727 17.76 175.568 17.6505 175.337L16.0002 171.86L14.3501 175.337Z" fill="black"/>
</g>
<g clip-path="url(#clip2_184_3756)">
<path d="M16 32C24.8366 32 32 24.8366 32 16C32 7.16344 24.8366 0 16 0C7.16344 0 0 7.16344 0 16C0 24.8366 7.16344 32 16 32Z" fill="#50DBFF"/>
<path d="M8.34189 16.6838C8.34189 14.569 10.0562 12.8547 12.1709 12.8547H19.829C21.9438 12.8547 23.6581 14.569 23.6581 16.6838V20.5129C23.6581 22.6276 21.9438 24.3419 19.829 24.3419H12.1709C10.0562 24.3419 8.34189 22.6276 8.34189 20.5129V16.6838Z" fill="black"/>
<path d="M22.7008 16.6838C22.7008 15.0977 21.4151 13.812 19.829 13.812H12.1709C10.5849 13.812 9.29915 15.0977 9.29915 16.6838V20.5129C9.29915 22.0989 10.5849 23.3846 12.1709 23.3846H19.829C21.4151 23.3846 22.7008 22.0989 22.7008 20.5129V16.6838ZM24.6154 20.5129C24.6154 23.1562 22.4725 25.2992 19.829 25.2992H12.1709C9.52753 25.2992 7.38461 23.1562 7.38461 20.5129V16.6838C7.38461 14.0404 9.52753 11.8975 12.1709 11.8975H19.829C22.4725 11.8975 24.6154 14.0404 24.6154 16.6838V20.5129Z" fill="black"/>
<path d="M16.9573 19.5556C16.9573 20.0842 16.5287 20.5129 16 20.5129C15.4712 20.5129 15.0427 20.0842 15.0427 19.5556V17.641C15.0427 17.1124 15.4712 16.6838 16 16.6838C16.5287 16.6838 16.9573 17.1124 16.9573 17.641V19.5556Z" fill="#50DBFF"/>
<path d="M11.2137 10.9402C11.2137 9.76389 11.6381 8.68674 12.342 7.85339C12.3674 7.82332 12.3936 7.79397 12.4196 7.76458C12.4382 7.74362 12.4567 7.72258 12.4757 7.70194C12.5679 7.60159 12.6636 7.50485 12.7636 7.41308C12.8465 7.33701 12.9327 7.26448 13.0207 7.19434C13.0334 7.18424 13.0463 7.17437 13.0591 7.16442C13.2419 7.02182 13.4359 6.89357 13.6387 6.77834C13.6465 6.77386 13.654 6.76875 13.662 6.76432C14.1206 6.50701 14.6255 6.32341 15.1615 6.22865C15.1888 6.22378 15.2163 6.21903 15.2437 6.21463C15.2761 6.2095 15.3084 6.20509 15.3409 6.20061C15.3708 6.19645 15.4007 6.19205 15.4307 6.18845C15.5387 6.17565 15.6478 6.16591 15.7579 6.16042C15.7859 6.15899 15.814 6.15947 15.842 6.15855C15.8945 6.15684 15.9471 6.15387 16 6.15387V6.15761C16.5428 6.15761 17.0847 6.24668 17.6023 6.43058C18.5431 6.76493 19.3564 7.38469 19.9273 8.20395C20.2294 8.63775 20.1226 9.23482 19.6889 9.53702C19.2551 9.83905 18.6588 9.73228 18.3567 9.29863C18.0143 8.80704 17.5264 8.43451 16.962 8.23387C16.6059 8.10733 16.2302 8.0526 15.857 8.0712C15.7941 8.07429 15.7318 8.08004 15.67 8.0871C15.5605 8.09977 15.4518 8.12063 15.3438 8.14599C15.2496 8.16801 15.1574 8.19441 15.0671 8.22545C15.0261 8.23951 14.9856 8.25447 14.9455 8.27033C14.9071 8.28551 14.8691 8.30123 14.8315 8.318C14.7843 8.33903 14.7381 8.36182 14.6922 8.3853C14.6654 8.39906 14.6382 8.41188 14.6118 8.42644C14.5386 8.46683 14.467 8.50982 14.3977 8.55638C14.3873 8.56333 14.378 8.57173 14.3678 8.57882C14.3107 8.61834 14.2547 8.65954 14.2005 8.70315C14.1753 8.72341 14.151 8.7447 14.1267 8.76578C14.0825 8.80378 14.0394 8.84287 13.9975 8.88357C13.9804 8.90033 13.963 8.91686 13.9462 8.93405C13.9035 8.97771 13.8627 9.02314 13.8228 9.0696C13.3905 9.57225 13.1283 10.2253 13.1283 10.9402V12.8547H11.2137V10.9402Z" fill="black"/>
</g>
<defs>
<linearGradient id="paint0_linear_184_3756" x1="16" y1="195.755" x2="16" y2="223" gradientUnits="userSpaceOnUse">
<stop offset="0.475962" stop-color="#50DBFF"/>
<stop offset="1"/>
</linearGradient>
<clipPath id="clip0_184_3756">
<rect width="32" height="32" fill="white" transform="translate(0 81)"/>
</clipPath>
<clipPath id="clip1_184_3756">
<rect width="32" height="32" fill="white" transform="translate(0 162)"/>
</clipPath>
<clipPath id="clip2_184_3756">
<rect width="32" height="32" fill="white"/>
</clipPath>
</defs>
</svg>
