<svg preserveAspectRatio="none" width="100%" height="100%" overflow="visible" style="display: block;" viewBox="0 0 150 24" fill="none" xmlns="http://www.w3.org/2000/svg">
<g id="WHOOP_Logo_Black 1" clip-path="url(#clip0_21_22)">
<path id="Vector" d="M145.416 0.558785C145.192 0.564033 144.972 0.614031 144.768 0.705828C144.564 0.797626 144.38 0.929364 144.228 1.09326C143.909 1.4071 143.725 1.8335 143.717 2.28098C143.702 2.51417 143.734 2.74801 143.811 2.96844C143.889 3.18887 144.011 3.39136 144.168 3.56372C144.481 3.88388 144.909 4.06744 145.356 4.07445C145.579 4.0714 145.799 4.02356 146.003 3.93379C146.207 3.84401 146.391 3.71412 146.544 3.55185C146.724 3.40909 146.874 3.23137 146.985 3.02932C147.095 2.82728 147.163 2.60507 147.185 2.376C147.172 1.9271 146.985 1.50091 146.663 1.18828C146.512 0.999766 146.323 0.845926 146.108 0.737286C145.893 0.628643 145.656 0.567755 145.416 0.558785ZM147.553 2.376C147.56 2.66385 147.506 2.94989 147.396 3.21578C147.285 3.48167 147.12 3.72155 146.912 3.92004C146.511 4.30763 145.973 4.52108 145.416 4.51391C145.133 4.52022 144.853 4.46867 144.591 4.36246C144.33 4.25624 144.093 4.09759 143.895 3.89629C143.694 3.69806 143.536 3.46104 143.43 3.19967C143.324 2.93831 143.272 2.65806 143.277 2.376C143.272 2.08441 143.329 1.79501 143.444 1.52685C143.558 1.25868 143.728 1.01782 143.943 0.820081C144.343 0.450078 144.87 0.246278 145.416 0.249977C145.698 0.245052 145.977 0.297231 146.238 0.403372C146.5 0.509513 146.737 0.667422 146.936 0.867594C147.135 1.06402 147.294 1.29903 147.399 1.55834C147.506 1.81765 147.558 2.09584 147.553 2.376ZM145.807 1.93655C145.806 1.87724 145.788 1.81952 145.754 1.77083C145.72 1.72214 145.673 1.68472 145.617 1.66337C145.495 1.64704 145.371 1.64704 145.249 1.66337H145.107V2.25723H145.344C145.461 2.26678 145.578 2.23757 145.677 2.17409C145.72 2.14098 145.755 2.09765 145.778 2.04793C145.8 1.9982 145.811 1.94363 145.807 1.88903V1.93655ZM144.477 3.56372V1.18828H145.665C145.827 1.19066 145.985 1.23137 146.128 1.30705C146.23 1.35823 146.316 1.43849 146.373 1.53779C146.43 1.63709 146.456 1.751 146.448 1.86528C146.454 1.94621 146.443 2.02746 146.414 2.10335C146.385 2.17925 146.34 2.24798 146.283 2.30474C146.163 2.39638 146.018 2.45014 145.866 2.45915C145.99 2.48314 146.107 2.5316 146.211 2.60167C146.282 2.66783 146.337 2.74923 146.372 2.83976C146.407 2.93028 146.421 3.02756 146.413 3.12427V3.33806C146.408 3.36149 146.408 3.38589 146.413 3.40932C146.408 3.43275 146.408 3.45716 146.413 3.48059V3.55185H145.819C145.803 3.44154 145.803 3.3296 145.819 3.21929C145.825 3.12437 145.825 3.02915 145.819 2.93423C145.799 2.88373 145.767 2.83892 145.725 2.80372C145.684 2.76851 145.635 2.744 145.581 2.73232C145.512 2.71687 145.438 2.71687 145.368 2.73232H145.107V3.56372H144.477Z" fill="var(--fill-0, black)"/>
<path id="Vector_2" fill-rule="evenodd" clip-rule="evenodd" d="M77.1682 0.00154343C74.0032 -0.0493007 70.9473 1.15784 68.6715 3.35795C66.3956 5.55806 65.0858 8.57138 65.0296 11.7362C65.1679 14.8627 66.5073 17.8152 68.7685 19.9787C71.0298 22.142 74.0386 23.3496 77.1682 23.3496C80.298 23.3496 83.3062 22.142 85.5675 19.9787C87.8287 17.8152 89.1682 14.8627 89.307 11.7362C89.247 8.57235 87.9367 5.56092 85.6612 3.36147C83.3865 1.16203 80.3325 -0.0461501 77.1682 0.00154343ZM77.1682 20.7036C74.7497 20.7417 72.415 19.8191 70.6759 18.1379C68.9369 16.4568 67.9357 14.1546 67.892 11.7362C67.892 9.27608 68.8694 6.91666 70.609 5.17705C72.3486 3.43744 74.7079 2.46013 77.1682 2.46013C79.6282 2.46013 81.9878 3.43744 83.727 5.17705C85.467 6.91666 86.4443 9.27608 86.4443 11.7362C86.4008 14.1546 85.3995 16.4568 83.6602 18.1379C81.9217 19.8191 79.5862 20.7417 77.1682 20.7036ZM38.7572 0.00154343H41.7146V23.4709H38.7572V0.00154343ZM44.6958 10.311H53.2117V13.1734H44.6958V10.311ZM59.1504 0.00154343H56.1929V23.4709H59.1504V0.00154343ZM125.045 0.00154343H128.015V23.4709H125.045V0.00154343ZM130.984 0.00154343H134.962C136.034 -0.0189261 137.099 0.17192 138.098 0.563178C139.095 0.954435 140.006 1.53844 140.778 2.28184C141.55 3.02523 142.168 3.91345 142.597 4.89575C143.026 5.87806 143.257 6.93521 143.277 8.00678C143.257 9.07838 143.026 10.1356 142.597 11.1179C142.168 12.1001 141.55 12.9884 140.778 13.7318C140.006 14.4751 139.095 15.0592 138.098 15.4504C137.099 15.8416 136.034 16.0325 134.962 16.012H130.996V13.2328H134.962C136.372 13.255 137.732 12.7172 138.746 11.7375C139.759 10.7577 140.342 9.41603 140.367 8.00678C140.339 6.59969 139.754 5.261 138.742 4.28379C137.728 3.30657 136.37 2.77042 134.962 2.79269H130.996L130.984 0.00154343ZM94.509 11.7362C94.647 8.60985 95.9865 5.65731 98.2477 3.49388C100.509 1.33046 103.518 0.122949 106.648 0.122949C109.777 0.122949 112.786 1.33046 115.047 3.49388C117.308 5.65731 118.648 8.60985 118.786 11.7362C118.648 14.8627 117.308 17.8152 115.047 19.9787C112.786 22.142 109.777 23.3496 106.648 23.3496C103.518 23.3496 100.509 22.142 98.2477 19.9787C95.9865 17.8152 94.647 14.8627 94.509 11.7362ZM97.371 11.7362C97.371 14.2012 98.3505 16.5651 100.093 18.3081C101.836 20.051 104.201 21.0302 106.665 21.0302C109.13 21.0302 111.494 20.051 113.237 18.3081C114.98 16.5651 115.959 14.2012 115.959 11.7362C115.959 9.27608 114.982 6.91666 113.243 5.17705C111.503 3.43744 109.143 2.46013 106.683 2.46013C104.223 2.46013 101.863 3.43744 100.124 5.17705C98.3842 6.91666 97.407 9.27608 97.407 11.7362H97.371ZM18.3164 8.87385L22.913 23.4709H25.7872L33.1749 0.00154343H30.3006L24.362 18.8982L21.1907 8.87385H18.3164ZM0.75 0.00154343L5.3465 14.5987H8.22075L3.62429 0.00154343H0.75ZM8.13765 23.4709L15.5253 0.00154343H18.3996L11.012 23.4709H8.13765Z" fill="var(--fill-0, black)"/>
</g>
<defs>
<clipPath id="clip0_21_22">
<rect width="150" height="24" fill="white"/>
</clipPath>
</defs>
</svg>
