<svg preserveAspectRatio="none" width="100%" height="100%" overflow="visible" style="display: block;" viewBox="0 0 100 16" fill="none" xmlns="http://www.w3.org/2000/svg">
<g id="WHOOP_Logo_Black 1" clip-path="url(#clip0_71_641)">
<path id="Vector" d="M96.9437 0.372523C96.7947 0.376022 96.6477 0.409354 96.5117 0.470552C96.3757 0.531751 96.2532 0.619576 96.1517 0.728841C95.9392 0.938066 95.8167 1.22234 95.8112 1.52066C95.8012 1.67612 95.8227 1.83201 95.8742 1.97896C95.9262 2.12592 96.0072 2.26091 96.1122 2.37582C96.3207 2.58926 96.6057 2.71163 96.9042 2.7163C97.0527 2.71427 97.1992 2.68238 97.3352 2.62253C97.4712 2.56268 97.5937 2.47608 97.6957 2.3679C97.8162 2.27273 97.9162 2.15425 97.9897 2.01955C98.0632 1.88485 98.1087 1.73671 98.1232 1.584C98.1147 1.28474 97.9897 1.00061 97.7752 0.792186C97.6747 0.666511 97.5487 0.563951 97.4052 0.491524C97.2617 0.419095 97.1042 0.378503 96.9437 0.372523ZM98.3687 1.584C98.3732 1.7759 98.3372 1.96659 98.2637 2.14385C98.1902 2.32112 98.0802 2.48104 97.9412 2.61336C97.6737 2.87176 97.3152 3.01406 96.9437 3.00927C96.7552 3.01348 96.5687 2.97912 96.3942 2.90831C96.2197 2.83749 96.0617 2.73173 95.9302 2.59753C95.7962 2.46538 95.6907 2.30736 95.6197 2.13312C95.5492 1.95887 95.5147 1.77204 95.5182 1.584C95.5147 1.38961 95.5527 1.19668 95.6292 1.0179C95.7052 0.839121 95.8187 0.678546 95.9617 0.546721C96.2287 0.300052 96.5797 0.164185 96.9437 0.166651C97.1317 0.163368 97.3182 0.198154 97.4922 0.268915C97.6667 0.339675 97.8247 0.444948 97.9572 0.578396C98.0902 0.709346 98.1957 0.866021 98.2662 1.03889C98.3372 1.21177 98.3717 1.39723 98.3687 1.584ZM97.2047 1.29103C97.2042 1.25149 97.1922 1.21302 97.1692 1.18056C97.1467 1.1481 97.1152 1.12315 97.0782 1.10891C96.9967 1.09803 96.9142 1.09803 96.8327 1.10891H96.7377V1.50482H96.8962C96.9742 1.51119 97.0517 1.49171 97.1177 1.44939C97.1467 1.42732 97.1697 1.39843 97.1852 1.36529C97.2002 1.33214 97.2072 1.29575 97.2047 1.25936V1.29103ZM96.3182 2.37582V0.792186H97.1097C97.2177 0.793771 97.3232 0.820911 97.4187 0.871366C97.4867 0.905486 97.5437 0.958991 97.5817 1.02519C97.6197 1.09139 97.6372 1.16734 97.6322 1.24352C97.6362 1.29748 97.6287 1.35164 97.6092 1.40224C97.5902 1.45284 97.5602 1.49865 97.5217 1.53649C97.4417 1.59759 97.3452 1.63343 97.2442 1.63943C97.3267 1.65543 97.4047 1.68774 97.4742 1.73445C97.5212 1.77855 97.5582 1.83282 97.5812 1.89317C97.6047 1.95352 97.6142 2.01838 97.6087 2.08285V2.22537C97.6052 2.24099 97.6052 2.25726 97.6087 2.27288C97.6052 2.2885 97.6052 2.30477 97.6087 2.32039V2.3679H97.2127C97.2022 2.29436 97.2022 2.21973 97.2127 2.14619C97.2167 2.08291 97.2167 2.01944 97.2127 1.95616C97.1992 1.92249 97.1777 1.89261 97.1502 1.86915C97.1227 1.84568 97.0897 1.82934 97.0542 1.82155C97.0077 1.81125 96.9587 1.81125 96.9117 1.82155H96.7377V2.37582H96.3182Z" fill="var(--fill-0, black)"/>
<path id="Vector_2" fill-rule="evenodd" clip-rule="evenodd" d="M51.4455 0.00102895C49.3354 -0.0328671 47.2982 0.77189 45.781 2.23864C44.2637 3.70538 43.3905 5.71425 43.3531 7.82415C43.4453 9.90845 44.3382 11.8768 45.8457 13.3191C47.3532 14.7614 49.3591 15.5664 51.4455 15.5664C53.532 15.5664 55.5375 14.7614 57.045 13.3191C58.5525 11.8768 59.4455 9.90845 59.538 7.82415C59.498 5.7149 58.6245 3.70728 57.1075 2.24098C55.591 0.774685 53.555 -0.0307667 51.4455 0.00102895ZM51.4455 13.8024C49.8331 13.8278 48.2766 13.2127 47.1173 12.092C45.9579 10.9712 45.2905 9.4364 45.2613 7.82415C45.2613 6.18405 45.9129 4.6111 47.0727 3.45136C48.2324 2.29163 49.8053 1.64009 51.4455 1.64009C53.0855 1.64009 54.6585 2.29163 55.818 3.45136C56.978 4.6111 57.6295 6.18405 57.6295 7.82415C57.6005 9.4364 56.933 10.9712 55.7735 12.092C54.6145 13.2127 53.0575 13.8278 51.4455 13.8024ZM25.8381 0.00102895H27.8097V15.6473H25.8381V0.00102895ZM29.7972 6.874H35.4745V8.78225H29.7972V6.874ZM39.4336 0.00102895H37.4619V15.6473H39.4336V0.00102895ZM83.3635 0.00102895H85.343V15.6473H83.3635V0.00102895ZM87.3225 0.00102895H89.975C90.6895 -0.0126174 91.3995 0.114613 92.065 0.375452C92.73 0.63629 93.3375 1.02563 93.852 1.52122C94.367 2.01682 94.779 2.60896 95.0645 3.26383C95.3505 3.9187 95.5045 4.62347 95.518 5.33785C95.5045 6.05225 95.3505 6.75705 95.0645 7.4119C94.779 8.06675 94.367 8.6589 93.852 9.1545C93.3375 9.6501 92.73 10.0394 92.065 10.3003C91.3995 10.5611 90.6895 10.6883 89.975 10.6747H87.3305V8.82185H89.975C90.9145 8.8367 91.8215 8.47815 92.497 7.825C93.1725 7.1718 93.5615 6.27735 93.578 5.33785C93.559 4.39979 93.1695 3.50734 92.4945 2.85586C91.819 2.20438 90.9135 1.84695 89.975 1.86179H87.3305L87.3225 0.00102895ZM63.006 7.82415C63.098 5.7399 63.991 3.77154 65.4985 2.32926C67.006 0.88697 69.012 0.081966 71.0985 0.081966C73.1845 0.081966 75.1905 0.88697 76.698 2.32926C78.2055 3.77154 79.0985 5.7399 79.1905 7.82415C79.0985 9.90845 78.2055 11.8768 76.698 13.3191C75.1905 14.7614 73.1845 15.5664 71.0985 15.5664C69.012 15.5664 67.006 14.7614 65.4985 13.3191C63.991 11.8768 63.098 9.90845 63.006 7.82415ZM64.914 7.82415C64.914 9.46745 65.567 11.0434 66.729 12.2054C67.891 13.3674 69.467 14.0202 71.11 14.0202C72.7535 14.0202 74.3295 13.3674 75.4915 12.2054C76.6535 11.0434 77.306 9.46745 77.306 7.82415C77.306 6.18405 76.6545 4.6111 75.495 3.45136C74.335 2.29163 72.762 1.64009 71.122 1.64009C69.482 1.64009 67.909 2.29163 66.7495 3.45136C65.5895 4.6111 64.938 6.18405 64.938 7.82415H64.914ZM12.2109 5.9159L15.2753 15.6473H17.1915L22.1166 0.00102895H20.2004L16.2413 12.5988L14.1271 5.9159H12.2109ZM0.5 0.00102895L3.56433 9.73245H5.4805L2.41619 0.00102895H0.5ZM5.4251 15.6473L10.3502 0.00102895H12.2664L7.3413 15.6473H5.4251Z" fill="var(--fill-0, black)"/>
</g>
<defs>
<clipPath id="clip0_71_641">
<rect width="100" height="16" fill="white"/>
</clipPath>
</defs>
</svg>
